<svg width="1024" height="768" xmlns="http://www.w3.org/2000/svg" style="vector-effect: non-scaling-stroke;" stroke="null">
 <!-- Created with Method Draw - http://github.com/duopixel/Method-Draw/ -->
 <g stroke="null">
  <title stroke="null">background</title>
  <rect stroke="null" fill="#ffff56" id="canvas_background" height="770" width="1026" y="-1" x="-1"/>
  <g style="vector-effect: non-scaling-stroke;" stroke="null" display="none" overflow="visible" y="0" x="0" height="100%" width="100%" id="canvasGrid">
   <rect fill="url(#gridpattern)" stroke-width="0" y="0" x="0" height="100%" width="100%"/>
  </g>
 </g>
 <g stroke="null">
  <title stroke="null">Layer 1</title>
  <path stroke="#000" id="svg_1" d="m-8.187548,793.987545l0,-798.999907l1065.000131,798.999907l-1065.000131,0z" stroke-width="1.5" fill="#0fffff"/>
  <line stroke="#f9f900" stroke-linecap="null" stroke-linejoin="null" id="svg_2" y2="657.5" x2="730.5" y1="520.5" x1="819.5" stroke-width="1.5" fill="none"/>
  <line stroke="#f9f900" stroke-linecap="null" stroke-linejoin="null" id="svg_3" y2="595.5" x2="637.5" y1="478.5" x1="721.5" stroke-width="1.5" fill="none"/>
  <line stroke="#f9f900" stroke-linecap="null" stroke-linejoin="null" id="svg_4" y2="486.5" x2="444.5" y1="376.5" x1="592.5" stroke-width="1.5" fill="none"/>
  <line stroke="#f9f900" stroke-linecap="null" stroke-linejoin="null" id="svg_5" y2="335.5" x2="334.5" y1="262.5" x1="456.5" stroke-width="1.5" fill="none"/>
  <line stroke="#f9f900" stroke-linecap="null" stroke-linejoin="null" id="svg_6" y2="289.5" x2="113.5" y1="181.5" x1="328.5" stroke-width="1.5" fill="none"/>
  <line stroke="#f9f900" stroke-linecap="null" stroke-linejoin="null" id="svg_7" y2="162.5" x2="87.5" y1="91.5" x1="209.5" stroke-width="1.5" fill="none"/>
  <line stroke="#f9f900" stroke-linecap="null" stroke-linejoin="null" id="svg_8" y2="79.5" x2="47.5" y1="29.5" x1="124.5" stroke-width="1.5" fill="none"/>
  <line stroke="#f9f900" stroke-linecap="null" stroke-linejoin="null" id="svg_9" y2="307.5" x2="296.5" y1="225.5" x1="341.5" stroke-width="1.5" fill="none"/>
  <line stroke="#f9f900" stroke-linecap="null" stroke-linejoin="null" id="svg_10" y2="400.5" x2="449.5" y1="324.5" x1="489.5" stroke-width="1.5" fill="none"/>
  <line stroke="#f9f900" stroke-linecap="null" stroke-linejoin="null" id="svg_11" y2="509.5" x2="605.5" y1="420.5" x1="647.5" stroke-width="1.5" fill="none"/>
  <line stroke="#f9f900" stroke-linecap="null" stroke-linejoin="null" id="svg_12" y2="581.5" x2="734.5" y1="515.5" x1="760.5" stroke-width="1.5" fill="none"/>
  <line stroke="#f9f900" stroke-linecap="null" stroke-linejoin="null" id="svg_13" y2="668.5" x2="866.5" y1="611.5" x1="891.5" stroke-width="1.5" fill="none"/>
  <line stroke="#f9f900" stroke-linecap="null" stroke-linejoin="null" id="svg_14" y2="726.5" x2="914.5" y1="685.5" x1="941.5" stroke-width="1.5" fill="none"/>
  <line stroke="#f9f900" stroke-linecap="null" stroke-linejoin="null" id="svg_15" y2="639.5" x2="780.5" y1="593.5" x1="827.5" stroke-width="1.5" fill="none"/>
  <line stroke="#f9f900" stroke-linecap="null" stroke-linejoin="null" id="svg_16" y2="366.5" x2="432.5" y1="280.5" x1="496.5" stroke-width="1.5" fill="none"/>
  <ellipse stroke="#f9f900" transform="rotate(-54.272151947021484 41.29697418212895,732.3187255859375) " ry="173.164223" rx="96.607846" id="svg_17" cy="732.318736" cx="41.296974" stroke-width="1.5" fill="#ffff00"/>
  <text stroke="#000" transform="matrix(1.4058617146233119,0,0,1.3941433177831761,-784.4888499214012,2.6279496961071027) " xml:space="preserve" text-anchor="start" font-family="Helvetica, Arial, sans-serif" font-size="24" id="svg_18" y="11.5" x="767.5" stroke-opacity="null" stroke-width="0" fill="#000000">колосья растут вниз, солнце встает в горизонт</text>
 </g>
</svg>