<svg width="1024" height="768" xmlns="http://www.w3.org/2000/svg">
 <!-- Created with Method Draw - http://github.com/duopixel/Method-Draw/ -->
 <defs>
  <filter height="200%" width="200%" y="-50%" x="-50%" id="svg_1_blur">
   <feGaussianBlur stdDeviation="4.7" in="SourceGraphic"/>
  </filter>
  <linearGradient spreadMethod="pad" y2="0" x2="1" y1="0" x1="0" id="svg_2">
   <stop offset="0.660156" stop-color="#529D94"/>
   <stop offset="1" stop-color="#ad626b"/>
  </linearGradient>
  <linearGradient y2="0.925781" x2="0.609375" y1="0" x1="0.660156" id="svg_12">
   <stop offset="0.582031" stop-color="#0fffff"/>
   <stop offset="1" stop-color="#f00000"/>
  </linearGradient>
  <linearGradient spreadMethod="pad" y2="0" x2="1" y1="1" x1="1" id="svg_20">
   <stop offset="0.078125" stop-color="#ffff00"/>
   <stop offset="1" stop-opacity="0.996094" stop-color="#56ffff"/>
   <stop offset="1" stop-color="#0000ff"/>
   <stop offset="1" stop-color="#0000ff"/>
   <stop offset="1" stop-color="#0000ff"/>
   <stop offset="1.039063" stop-opacity="0" stop-color="0"/>
  </linearGradient>
  <radialGradient r="0.01" gradientTransform="rotate(-90,0.5,0.5) translate(0,0.495) scale(1,0.01)" spreadMethod="pad" id="svg_23">
   <stop offset="0" stop-color="#0000ff"/>
   <stop offset="0" stop-opacity="0" stop-color="0"/>
   <stop offset="0" stop-opacity="0.996094" stop-color="#56ffff"/>
   <stop offset="1" stop-color="#ffff00"/>
   <stop offset="1" stop-color="#0000ff"/>
   <stop offset="1" stop-color="#0000ff"/>
  </radialGradient>
  <linearGradient y2="0.539063" x2="1" y1="0" x1="0" id="svg_31">
   <stop offset="0" stop-color="#ff0000"/>
   <stop offset="1" stop-color="#00ffff"/>
  </linearGradient>
  <linearGradient y2="0" x2="0.558594" y1="0.449219" x1="0.570313" id="svg_57">
   <stop offset="0" stop-color="#bfbf00"/>
   <stop offset="1" stop-color="#4040ff"/>
  </linearGradient>
  <linearGradient y2="1" x2="1" y1="0" x1="0" id="svg_61">
   <stop offset="1" stop-color="#ffffff"/>
   <stop offset="1" stop-color="#000000"/>
  </linearGradient>
  <linearGradient y2="1" x2="0.421875" y1="0.414063" x1="0.453125" id="svg_67">
   <stop offset="0" stop-color="#ff0000"/>
   <stop offset="1" stop-color="#00ffff"/>
  </linearGradient>
  <linearGradient y2="1" x2="0.53125" y1="0" x1="0.597656" id="svg_70">
   <stop stop-opacity="0.996094" offset="0" stop-color="#7fff00"/>
   <stop offset="1" stop-opacity="0.996094" stop-color="#7f3f00"/>
   <stop offset="1" stop-color="#004d83"/>
   <stop offset="1" stop-color="#004d83"/>
  </linearGradient>
  <linearGradient y2="0.910156" x2="0.472656" y1="0.542969" x1="0.472656" id="svg_71">
   <stop stop-opacity="0.996094" offset="0" stop-color="#00ff00"/>
   <stop stop-opacity="0.996094" offset="1" stop-color="#7f3f00"/>
  </linearGradient>
  <linearGradient y2="0" x2="1" y1="0.800781" x1="0.367188" id="svg_72">
   <stop offset="0" stop-color="#ff0000"/>
   <stop offset="1" stop-opacity="0.996094" stop-color="#ffffff"/>
  </linearGradient>
  <linearGradient y2="0.480469" x2="0.035156" y1="0.601563" x1="0.433594" id="svg_78">
   <stop offset="0" stop-color="#ffffff"/>
   <stop offset="1" stop-opacity="0.996094" stop-color="#bf5f00"/>
  </linearGradient>
  <linearGradient y2="0" x2="0" y1="0.601563" x1="0.433594" id="svg_82">
   <stop offset="1" stop-color="#ffffff"/>
   <stop offset="1" stop-opacity="0.996094" stop-color="#bf5f00"/>
  </linearGradient>
 </defs>
 <g>
  <title>background</title>
  <rect fill="#fff" id="canvas_background" height="770" width="1026" y="-1" x="-1"/>
  <g display="none" overflow="visible" y="0" x="0" height="100%" width="100%" id="canvasGrid">
   <rect fill="url(#gridpattern)" stroke-width="0" y="0" x="0" height="100%" width="100%"/>
  </g>
 </g>
 <g>
  <title>Layer 1</title>
  <rect opacity="0.81" rx="60" filter="url(#svg_1_blur)" transform="rotate(-180 543.25,382.99999999999994) " stroke="url(#svg_2)" id="svg_1" height="798" width="1140.999988" y="-16" x="-27.249999" stroke-width="1.5" fill="url(#svg_12)"/>
  <rect stroke="#56ffff" id="svg_6" height="372.000018" width="1103.000023" y="403.999999" x="-28.5" stroke-width="1.5" fill="url(#svg_20)"/>
  <ellipse stroke="#ff0000" ry="90.000004" rx="122.500001" id="svg_21" cy="-0.999996" cx="475.000006" stroke-width="1.5" fill="url(#svg_23)"/>
  <line stroke-linecap="null" stroke-linejoin="null" id="svg_24" y2="245" x2="466.5" y1="41" x1="465.5" stroke-width="1.5" stroke="#ffff00" fill="none"/>
  <line stroke-linecap="null" stroke-linejoin="null" id="svg_25" y2="205" x2="293.5" y1="50" x1="437.5" stroke-width="1.5" stroke="#ffff00" fill="none"/>
  <line stroke-linecap="null" stroke-linejoin="null" id="svg_26" y2="14" x2="173.5" y1="21" x1="425.5" stroke-width="1.5" stroke="#ffff00" fill="none"/>
  <line stroke-linecap="null" stroke-linejoin="null" id="svg_27" y2="27" x2="778.5" y1="18" x1="527.5" stroke-width="1.5" stroke="#ffff00" fill="none"/>
  <line stroke-linecap="null" stroke-linejoin="null" id="svg_28" y2="218" x2="649.5" y1="48" x1="530.5" stroke-width="1.5" stroke="#ffff00" fill="none"/>
  <text stroke="#ffff00" transform="matrix(2.925439926904801,0,0,3.5704307556152344,-611.5154454301264,-763.779401242733) " xml:space="preserve" text-anchor="start" font-family="Helvetica, Arial, sans-serif" font-size="24" id="svg_29" y="319" x="274.5" stroke-width="0" fill="url(#svg_31)">PRAISE THE SUN!</text>
  <path id="svg_33" d="m197.103686,462.787384c-1.057979,0 -1.60178,-1.115871 -1.60178,-2.454c0,-1.115612 0.271859,-2.198744 1.05798,-2.198744c0.5438,0 1.362421,1.083132 1.634281,2.198744c0.5438,1.62431 0,2.454 -1.090481,2.454zm180.850437,63.67019c2.420483,0 2.964201,0.286181 1.60178,2.198485c-0.786121,1.338129 -2.420402,2.453741 -3.206522,2.453741c-0.818539,0 -1.634281,-1.115612 -1.634281,-2.453741c0,-1.370954 1.090563,-2.198485 3.239023,-2.198485zm-168.987789,-77.882986c-2.420401,-0.541436 -2.692343,-3.283172 0,-4.110961c1.362339,-0.254911 2.148542,0.54135 2.148542,2.198743c0,1.370782 -0.786203,2.167388 -2.148542,1.912218zm-30.17084,86.613607c3.239023,-0.796692 3.239023,-1.369312 2.148542,-3.250433c-0.815742,-1.369313 -1.087601,-3.026533 -0.5438,-3.568056c0.271859,-0.829259 1.634281,0 2.420401,1.624482c1.09048,2.198744 1.90614,2.486652 4.054682,1.115612c1.332883,-0.827704 2.420401,-1.370609 2.420401,-0.541351c0,0.541351 0.818622,0 1.876601,-1.115611c1.634363,-1.624482 1.906222,-5.194007 0.271941,-7.106398c-1.32992,-1.624482 -8.079825,-1.082959 -9.956426,0.827704c-1.0876,1.37104 -1.906222,1.084687 -2.964201,-1.369054c-1.634281,-4.079951 -1.634281,-4.652744 2.14846,-4.907654c3.239022,0 3.239022,0 0.5438,-1.657221c-1.35946,-0.796693 -2.69226,-2.453741 -2.69226,-3.536873c0,-2.741562 3.753202,-4.366045 5.387482,-2.453654c0.543801,0.79652 1.601862,1.624482 2.692343,1.624482c2.148542,0 12.406366,-9.272489 12.406366,-11.18488c0,-0.829172 1.060941,-1.370522 2.148542,-0.829172c1.3328,0.287822 3.753284,-0.54135 6.206186,-1.91239c3.478381,-2.198571 3.478381,-2.453741 1.60178,-6.021797c-1.329921,-2.453741 -2.964202,-3.283172 -6.747025,-3.283172c-4.297002,0 -5.387482,0.541609 -6.717403,3.824781c-0.546762,2.198485 -2.180961,3.823053 -3.239022,3.823053c-1.876601,0 -2.420401,-2.452272 -0.543801,-3.823053c0.81566,-0.541609 1.35946,-2.453741 1.35946,-4.366131c0,-2.995436 -0.5438,-3.536873 -4.054682,-2.740094c-3.510882,0.54135 -3.510882,0.28618 -2.692342,-3.824954c0.5438,-2.453654 1.32992,-4.652225 1.876683,-4.907395c0.5438,-0.28618 1.087518,-2.740094 1.087518,-5.193834c0,-4.907914 1.604742,-5.735617 4.571905,-2.198744c1.359378,1.912304 2.178082,2.198744 2.692261,0.54135c0.5438,-1.082959 2.44994,-1.338129 5.417104,-0.796779c4.025142,1.083132 4.297001,0.796779 3.753201,-2.453741c-0.271859,-1.912131 -0.54668,-4.110875 -0.818539,-4.652225c0,-0.827962 -1.329921,-1.91239 -2.934662,-2.740353c-3.239023,-1.370522 -4.054683,-4.652225 -1.090481,-4.652225c0.818621,0 1.604659,-0.541609 1.604659,-1.62621c0,-0.827963 1.634364,-1.369313 3.782823,-1.115784c2.967164,0.287821 4.568944,-0.796347 8.623626,-6.531705c2.967163,-4.111134 5.115623,-6.309705 5.387564,-5.194094c0.271859,1.369313 1.634281,2.165833 2.967082,2.165833c2.148542,0 2.420483,-0.79652 1.634363,-4.364576c-0.274821,-2.453914 -1.634363,-5.449005 -2.452902,-6.820045c-2.420484,-3.027743 -2.420484,-6.564616 0,-5.481915c1.906139,1.084687 7.837422,-1.910663 7.837422,-3.822967c0,-0.829259 0.789083,-1.370782 1.876601,-1.370782c1.090563,0 1.604742,1.657135 1.604742,3.824695c0,2.740094 0.5438,3.823226 1.906222,3.026447c1.057979,-0.572706 1.876683,-2.198744 1.876683,-3.281617c0,-3.283344 8.623543,-9.018788 10.772003,-7.392837c0.818704,0.541782 1.634281,0 1.909267,-1.912132c0.786037,-3.824694 5.656379,-6.820044 7.804839,-4.907654c1.090563,0.79652 2.148624,0.54161 2.423445,-0.28618c0.543718,-1.084601 2.69226,-1.912391 5.112662,-2.167733c2.420401,-0.286181 5.659423,-1.370781 7.021845,-2.486393c5.112661,-3.536873 10.228367,-3.281703 12.376827,0.543251c1.362422,2.739921 1.90614,2.739921 1.90614,0.82753c0,-2.453913 1.061024,-2.740093 7.536107,-1.912131c10.257906,1.084601 11.862648,1.084601 15.645471,-0.28644c2.420401,-0.796692 3.23894,-0.541522 3.23894,1.656962c0,1.37104 0.786203,2.454 1.876683,2.454c0.81566,0 1.60178,-0.796779 1.60178,-1.626037c0,-2.198485 4.329585,-3.281617 8.112326,-2.198485c2.934662,1.084601 3.206521,1.370522 2.420401,8.73209c-0.271859,4.397314 0,7.392664 0.514261,7.392664c0.543718,0 1.090481,-1.91239 1.090481,-4.652484c0,-4.621301 2.964201,-6.532137 4.054682,-2.74018c0.271941,1.369399 1.057979,0.827789 1.601779,-1.338043c1.362505,-5.737085 4.329586,-2.741822 3.510882,3.536873c-0.815577,5.193834 -0.815577,5.193834 1.604824,3.281444c1.36234,-0.82779 2.420319,-2.995091 2.420319,-4.364576c0,-1.370868 0.818704,-2.996819 1.906305,-3.569612c2.148377,-1.0827 4.571823,3.026707 3.78274,6.023266c-0.271859,1.369572 -0.271859,2.453913 0.514179,2.453913c0.546763,0 1.090563,-0.79652 1.090563,-1.370781c0,-0.796693 1.3328,-1.083132 2.967081,-0.54135c3.508002,0.82779 4.022181,3.026274 1.058062,4.364403c-0.78612,0.574262 -1.604742,1.912391 -1.604742,3.028175c0,1.912391 0.54668,1.912391 3.510882,0c4.840802,-3.281617 6.989262,-3.028175 7.807966,0.54135c0.543718,1.912391 1.604659,2.741649 2.69226,1.912391c1.09048,-0.286353 3.510882,0.829258 5.387565,2.740094c1.634281,1.625951 4.054682,2.99535 5.145162,2.99535c1.604742,0 1.604742,1.370954 1.057979,5.195476c-0.543718,4.111134 -0.543718,4.652484 1.090563,2.995522c2.14846,-2.709169 2.964202,-2.454172 3.753284,1.369054c0.271859,1.91239 2.177999,3.283172 4.326541,4.110961c2.420401,0.543251 3.753284,1.912304 3.753284,3.538342c0,1.657134 0.815577,3.568056 1.634281,4.652657c2.148542,1.912131 1.60178,7.647575 -0.818704,9.559879c-0.815577,0.572793 -1.876518,0.28644 -2.14846,-0.54135c-0.543718,-0.829431 -2.420401,-0.829431 -5.931365,0c-5.659424,1.910663 -6.717403,2.453741 -5.387482,4.938665c0.818621,1.624482 10.231247,1.083132 15.373529,-0.829258c1.604742,-0.827876 2.148542,0 2.148542,3.824781c0,2.739921 -0.5438,4.907654 -1.359459,4.907654c-0.546763,0 -1.060942,0.827703 -1.060942,2.198484c0,3.282999 1.332883,2.995091 4.843765,-0.827962c1.873638,-2.198485 2.964119,-2.741563 4.297002,-1.370522c1.359459,1.370522 1.634281,1.370522 1.634281,-0.827963c0,-1.33977 -0.546763,-2.45374 -1.36234,-2.45374c-0.514261,0 -1.061024,-1.084601 -1.061024,-2.167733c0,-1.370609 0.789083,-2.453741 1.876601,-2.453741c0.818622,0 1.906222,0.54135 1.906222,1.338129c0,0.829604 1.060942,1.912304 2.423364,2.198744c1.87372,0.829431 2.420401,1.91239 2.148459,5.194007c-0.54668,6.278263 0.543883,8.190826 4.568944,7.107867c1.906222,-0.543251 2.964119,0 2.148542,1.082959c-0.24232,0.54135 0,1.91239 0.5438,2.484751c2.180961,1.626124 1.36234,5.449437 -1.058062,5.449437c-2.967081,0 -3.782823,1.370522 -2.177998,3.824521c1.087518,1.370782 1.906139,1.624483 2.964119,0.541523c2.452902,-2.740094 2.967163,-0.541523 3.239022,10.38957c0,5.480015 0.543801,9.846319 1.087601,9.846319c1.3328,0 0.818622,6.023265 -1.087601,8.477006c-1.060941,1.369313 -1.060941,2.707356 -0.271859,3.822967c1.90614,2.454 0,9.560398 -2.423445,9.560398c-2.148378,0 -6.203142,5.193834 -6.203142,7.647748c0,2.996991 -3.47838,0 -4.297002,-3.281703c-0.815659,-2.995264 -0.815659,-2.995264 -1.362422,-0.829259c-0.514179,2.486479 2.423363,10.134227 4.873386,12.301528c1.604659,1.657394 -1.362422,4.397315 -3.510964,3.281704c-1.090563,-0.541351 -1.604742,-2.165833 -1.604742,-3.823054c0,-4.652225 -6.747024,-16.380096 -11.862648,-20.777238c-2.721799,-2.167733 -5.142282,-4.621474 -5.142282,-5.449177c0,-1.657221 -8.626505,-6.820045 -13.467308,-8.477179c-2.695304,-0.829259 -3.510964,-0.541437 -3.510964,1.657134c0,1.624482 -0.514179,2.165833 -1.604741,1.624482c-2.420402,-1.083132 -3.510882,1.371041 -1.36234,3.824781c2.967081,2.995264 2.452902,6.564616 -0.78612,5.193835c-2.178082,-0.82779 -2.450023,-0.541609 -1.634281,4.111048c0.271859,2.70891 0.818621,6.278262 0.818621,7.902745c0,1.657221 0.543718,2.740353 1.087519,2.740353c0.789164,0 1.060941,-0.54161 0.514261,-1.369313c-0.271859,-0.829431 0.274903,-1.626037 1.36234,-1.626037c0.818703,0 1.604741,1.084428 1.604741,2.167387c0,1.115784 -1.060859,2.198485 -2.967081,1.912563c-1.60178,0 -2.964202,-0.796779 -2.964202,-1.338301c0,-2.486652 -7.264165,-19.408099 -9.412625,-21.893023c-2.420483,-2.70917 -0.815742,-3.536873 -19.942555,9.304882c-2.964119,1.912391 -6.203142,6.023266 -7.837423,9.018788c-1.332882,2.995091 -3.481342,6.023266 -4.568943,6.564616c-1.090481,0.541609 -5.115623,4.907654 -8.626587,9.560139c-15.101671,20.48933 -12.648768,22.943244 -11.590707,64.785975c4.571823,31.706689 4.571823,31.706689 4.571823,31.706689c-10.775047,0 -10.775047,0 -10.775047,0c-8.895484,0 -8.895484,0 -8.895484,0c0.815659,-29.25459 0.815659,-29.25459 0.815659,-29.25459c0.543718,-2.452099 0.818622,-7.392406 1.090563,-10.132759c0.271859,-1.62595 -7.565646,-8.732348 -7.293705,-10.356658c0,-1.370781 8.109364,2.454 8.109364,1.08296c1.332801,-19.947981 0,-35.817825 -3.510964,-44.263734c-0.815659,-5.194093 -7.565563,-21.891381 -8.623543,-21.891381c-0.271941,0 -2.178081,-1.625951 -4.054682,-3.538342c-3.239105,-3.567883 -4.568943,-3.823226 -22.637777,-4.907654c-19.398673,-1.114143 -19.398673,-1.114143 -19.398673,-1.114143c-4.598482,3.823226 -4.598482,3.823226 -4.598482,3.823226c-2.69226,2.486393 -5.387482,4.110962 -6.173685,4.110962c-1.634281,0 -8.384185,5.736826 -11.318848,9.01827c-0.271859,0 -0.543718,-0.285922 -0.543718,-0.54135c-0.271941,0 -0.271941,0 -0.271941,-0.286354c-0.271859,-0.796519 -0.54668,-1.62595 -1.09048,-2.45374c1.63428,-1.370781 2.967081,-2.20004 3.510881,-1.912132c0.81566,0.541351 1.604742,0 1.604742,-1.37104c0,-1.369313 -1.604742,-1.912304 -5.901744,-1.369313c-5.145245,0.827963 -6.478045,1.114143 -7.293704,4.364663c-1.332883,1.657134 -1.604742,4.111048 -0.81566,6.023438c-0.274903,2.453741 -0.274903,4.110875 0,4.110875c0.271859,0 0.543718,-0.54135 1.35946,-1.115611c0,0.28644 0.271859,0.574261 0.54668,0.829258c-2.695222,0.82779 -4.057644,3.281703 -3.782823,5.735444c-1.362339,1.115612 -2.695222,1.657135 -4.329421,2.484924c0,0 0,-0.28618 -0.242402,-0.28618c1.060941,-2.453741 1.604742,-5.194094 1.876601,-9.304969c0.546762,-4.621474 0.271859,-7.647748 -0.543718,-7.647748c-0.543801,0 -1.090481,1.115612 -1.090481,2.739835c0.271777,1.37104 -0.242402,2.740353 -1.330003,2.995523c-0.818621,0.28618 -1.362339,-0.25517 -1.362339,-1.624483c0,-3.283172 -1.058062,-3.283172 -3.481425,-0.287822c-1.087518,1.115612 -3.236061,2.453914 -5.112661,3.028175c-2.452903,0.79652 -3.239023,0.254911 -4.329504,-2.740353c-0.815659,-2.453741 -1.359459,-5.195476 -0.815659,-6.278435c0.271859,-1.370781 0.271859,-2.484924 -0.78612,-2.484924c-2.967164,0 -0.818622,-4.366304 2.69226,-5.195563zm23.181496,-62.840932c-1.634281,-0.28618 -2.967164,-1.082959 -3.510882,-2.198571c-0.271941,-1.625951 -0.543801,-1.625951 -0.543801,0c0,1.115612 -1.09048,1.912391 -2.148542,2.198571c-1.90614,0 -1.90614,0.286353 0.271942,1.37104c1.329838,0.541351 2.69226,1.369054 2.964119,1.369054c0.24232,0 1.604742,-0.827703 2.967164,-1.369054c2.420401,-1.37104 2.420401,-1.37104 0,-1.37104zm213.713536,44.008564c0.514262,0.541609 1.058062,-0.287822 1.058062,-1.657135c0,-1.084428 -0.5438,-2.16756 -1.058062,-2.16756c-0.818539,0 -1.362339,0.541523 -1.362339,1.338129c0,0.829431 0.5438,1.945043 1.362339,2.486566zm-1.906139,2.453913c-0.271859,-0.829431 -1.604742,-1.912304 -2.695223,-1.912304c-0.78612,0 -1.32992,1.082873 -0.78612,1.912304c0.24232,0.82779 1.3328,1.369399 2.420401,1.369399c1.060942,0 1.332801,-0.541609 1.060942,-1.369399zm-2.420402,12.30006c0.81566,0 1.90614,-0.286181 1.90614,-0.541351c0,-0.574261 -1.09048,-1.115611 -1.90614,-1.65722c-1.060941,-0.541523 -1.876683,-0.25517 -1.876683,0.541609c0,0.829258 0.815742,1.656962 1.876683,1.656962zm2.148543,-25.971074c1.087518,-0.541782 1.634198,-1.370954 1.359459,-2.167733c-0.815741,-1.943314 -5.384685,-1.943314 -5.384685,0c0,2.167733 1.601862,2.995523 4.025226,2.167733zm-14.800191,-20.491231c-1.362421,0.829431 -2.178081,2.453914 -1.906304,3.283172c1.362422,2.166092 2.967246,1.624483 4.326623,-1.91239c1.332883,-3.283172 0.789083,-3.824522 -2.420319,-1.370782zm-5.145244,42.09626c7.021763,7.361308 7.293704,7.647748 7.293704,5.194007c0,-1.369313 -0.5438,-2.484924 -1.362422,-2.484924c-0.786038,0 -2.148459,-1.37104 -2.964119,-2.995264c-0.786202,-1.62621 -2.420401,-3.28343 -3.753284,-3.28343c-2.44994,0 -2.44994,0.287908 0.786121,3.569611zm-5.656544,-12.874494c1.631401,0 2.420483,-0.54135 1.359542,-0.796606c-0.81566,-0.541523 -2.148542,-0.541523 -2.964202,0c-0.818704,0.255256 0,0.796606 1.60466,0.796606zm-7.807884,-37.155953c0.815659,0.827962 3.236061,1.910922 5.38452,2.454c3.782906,0.827703 4.054765,0.827703 1.906223,-1.370782c-2.449941,-2.709169 -9.167344,-3.536872 -7.290743,-1.083218zm-16.434553,-45.346434c-0.81566,0.79652 -1.087519,2.453741 -0.81566,3.536614c0.543801,2.198744 2.148542,0.28644 2.148542,-2.995264c0,-1.65722 -0.271941,-1.91239 -1.332882,-0.54135zm8.079825,59.017707c2.148542,1.36914 2.967163,1.36914 4.057726,-0.543078c2.14846,-2.995437 0.786038,-4.364577 -3.239105,-2.453654c-3.239022,1.339597 -3.239022,1.339597 -0.818621,2.996732zm-5.384521,-13.671273c4.054682,-2.995005 4.054682,-2.995005 0.81566,-2.995005c-2.178082,0 -3.782823,1.082701 -4.598483,2.995005c-0.514261,1.910922 -1.060941,2.995523 -0.789082,2.995523c0,0 2.148542,-1.626124 4.571905,-2.995523zm-5.931365,44.295003c1.873639,2.995523 5.112744,2.995523 4.054682,-0.286353c-0.271859,-1.084428 -0.54668,-2.453741 -0.54668,-2.741649c0,-0.25517 -1.087601,-0.25517 -2.420401,0.287908c-2.178081,0.541523 -2.178081,1.369313 -1.087601,2.740094zm-8.354646,-11.217273c2.14846,2.995436 3.239023,3.281617 5.659424,1.083132c1.604742,-1.369312 1.604742,-1.369312 0,-1.624482c-0.815659,0 -2.964202,-0.287908 -4.840802,-0.829431c-2.695223,-1.08296 -2.695223,-1.08296 -0.818622,1.370781zm-0.271859,-29.796027c1.36234,0 2.967081,-4.366045 2.148542,-5.735357c-1.058061,-1.370782 -3.236143,0.827703 -3.236143,3.281616c0,1.370868 0.543801,2.453741 1.087601,2.453741zm-13.192568,18.578668c-1.634281,1.115611 -1.36234,1.37104 0.786202,1.37104c1.36234,0 2.964119,-0.54325 3.510882,-1.37104c0.815577,-2.167301 -1.876683,-2.167301 -4.297084,0zm0.271941,24.059114c0.24232,0.287908 1.057979,-0.286353 1.876601,-1.624482c0.815577,-1.115612 3.236143,-2.486393 5.112661,-3.028002c2.420401,-0.827963 3.510964,-2.166005 3.510964,-4.111048c0,-4.619573 -3.782823,-3.25052 -7.808048,2.741735c-1.634199,3.026534 -2.964119,5.480447 -2.692178,6.021797zm-2.967081,-12.586585c2.420318,-2.995091 2.420318,-3.538342 0.514096,-4.366131c-2.14846,-1.083133 -3.750239,1.37104 -3.750239,5.735443c-0.274821,3.283172 -0.274821,3.283172 3.236143,-1.369312zm-4.326624,-32.249682c0.271859,2.198485 0.81566,1.912305 2.420319,-2.16756c1.906305,-4.364662 1.906305,-4.938924 0.271941,-4.938924c-1.057979,0 -2.148542,0.827963 -2.420401,2.19883c-0.5438,1.082873 -0.5438,3.569525 -0.271859,4.907654zm-1.332882,-22.40198c0,1.114143 0.514178,3.823226 1.060941,5.735444c0.815659,3.824695 0.815659,3.824695 1.634281,0.541523c1.057979,-3.281444 0,-8.189098 -1.634281,-8.189098c-0.789082,0 -1.060941,0.827531 -1.060941,1.912131zm-18.881532,9.017061c-1.3328,1.91239 -1.3328,3.824781 -0.274821,9.560138c0.546762,4.110962 1.909184,8.22201 2.695222,9.018789c1.362422,1.370781 1.634281,0 1.90614,-8.475711c0,-10.356917 -1.362339,-13.63983 -4.326541,-10.103216zm2.420401,28.968237c0.271942,0.541609 0.81566,-0.541523 0.543801,-2.167474c0,-1.65722 -0.271859,-1.91239 -0.81566,-0.827789c-0.242402,1.082959 -0.242402,2.45374 0.271859,2.995263zm9.714106,-25.685065c-0.271859,0.541609 -0.271859,4.366304 0.5438,8.47571c0.818622,7.107867 1.060942,7.394047 1.332883,2.20004c0.271859,-8.477179 -0.271941,-12.588054 -1.876683,-10.67575zm-9.170305,77.086293c1.634281,-3.283171 4.326623,-8.763618 6.203224,-12.046531c2.14846,-3.537132 3.510881,-8.189357 4.054682,-12.841842c0.789082,-7.361567 0.789082,-7.361567 0.789082,-7.361567c-3.239023,4.079864 -3.239023,4.079864 -3.239023,4.079864c-1.604741,2.198744 -2.692342,4.652485 -2.692342,5.480447c0,2.167388 -5.115623,15.838401 -6.720365,18.292315c-0.81566,1.369053 -2.178081,4.397314 -2.420401,6.564615c-1.362422,6.27714 1.060941,5.194008 4.025143,-2.167301zm-19.126814,28.138807c0.818622,5.449004 0.818622,5.449004 3.510964,-6.278522c1.604742,-6.309792 4.025143,-16.411108 5.659424,-22.689716c2.14846,-7.934187 2.967081,-14.498803 2.967081,-23.772502c0,-12.045322 -0.274821,-12.300491 -2.423281,-10.929451c-4.870423,3.536786 -7.565646,13.383105 -8.653246,32.503123c-0.514179,9.84822 -1.060942,19.694539 -1.60466,21.862099c-0.271941,2.198571 0,6.309619 0.543718,9.304969zm0.546763,-69.948886c1.057979,2.709084 2.148542,4.907655 2.148542,4.907655c0.271859,0 1.601697,-1.657221 2.69226,-3.824522c1.36234,-1.910836 3.510882,-4.109407 4.326623,-4.906186c3.209401,-2.486393 4.025061,-10.134141 1.332801,-15.328148c-2.148542,-4.652484 -8.079825,-9.848047 -9.170388,-8.190826c-0.543718,0.541523 -1.329838,5.737085 -1.876601,11.758883c-1.087518,9.018529 -1.087518,11.760091 0.546763,15.583144zm-1.634281,-62.587058c0.5438,0.543078 1.087518,0.25517 1.087518,-0.572534c0,-1.0846 -0.543718,-2.167733 -1.087518,-2.709169c-0.818622,-0.574175 -1.332883,-0.286353 -1.332883,0.796779c0,0.82779 0.514261,1.91239 1.332883,2.484924zm-87.308878,73.485326c3.753201,0.287822 3.753201,0.287822 3.753201,0.287822c3.782823,0 7.565646,-3.538342 7.565646,-6.564616c0,-1.91239 -0.271859,-1.91239 -11.318847,6.276794zm1.604742,-7.647834c0,0.82969 0.5438,1.657221 1.362421,1.657221c1.329921,0 5.112662,-4.907655 4.297002,-5.735358c-0.818621,-1.115611 -5.659423,2.453654 -5.659423,4.078137zm2.967081,-18.833578c4.054764,5.450472 5.931365,5.991995 8.079825,2.453654c2.178081,-3.281444 0.271941,-5.480188 -6.206104,-6.276967c-5.384603,-0.829431 -5.384603,-0.829431 -1.873721,3.823313zm-2.967081,-15.326766c0,0.572533 1.906139,1.910662 4.054682,3.026274c9.956508,5.194094 11.862647,5.194094 11.590706,0.255429c0,-2.995523 -4.054682,-9.560311 -5.659424,-9.560311c-1.90614,0 -9.985964,5.194007 -9.985964,6.278608zm14.55787,38.813087c2.964201,0 3.23606,-0.827962 0.815659,-2.166091c-1.09048,-0.287822 -2.148542,0 -2.420401,0.796779c-0.546763,0.82753 0.271859,1.369312 1.604742,1.369312zm2.148542,-64.2118c-1.876683,-1.370954 -4.300047,-1.912304 -5.387565,-1.370954c-1.876601,1.084601 -1.604742,1.370954 1.087518,2.198485c1.332883,0.543251 4.057727,1.084687 5.387565,1.339857c1.604742,0 1.604742,-0.543078 -1.087518,-2.167388zm-0.24232,9.846319c1.601697,0 1.876601,-0.286353 0.78612,-1.114143c-0.78612,-0.254997 -1.876683,-0.254997 -2.420483,0.28644c-0.271859,0.54135 0.5438,1.083132 1.634363,0.827703zm1.601697,6.278695c-3.78274,0 -3.78274,0.25491 -1.601697,2.453654c2.69226,2.453741 3.47838,2.739921 4.568943,1.082959c1.876519,-2.166091 0.543718,-3.536613 -2.967246,-3.536613zm5.387647,-30.87916c-1.090563,-1.370781 -1.362422,1.083133 -0.815741,4.078396c0.271859,1.912391 1.359459,3.569352 1.906222,3.569352c1.057979,0 0.271859,-6.023265 -1.090481,-7.647748zm8.623543,36.072735c-0.543718,0.255429 0.818622,1.912391 2.423364,3.283345c1.63428,1.369312 2.964119,1.910749 2.964119,1.082959c0,-1.912131 -4.568861,-5.481656 -5.387483,-4.366304zm-6.747024,1.912391c-2.420401,1.912563 -1.057979,6.819958 2.450022,7.64792c1.876601,0.541437 4.843765,2.740181 6.720366,4.907482c1.63428,2.198743 2.964119,3.028174 2.964119,2.198743c0,-2.740093 -10.772085,-15.869757 -12.134507,-14.754145zm11.046988,22.689974c-1.604659,-4.398956 -3.481342,-6.565047 -6.992306,-7.935829c-2.69226,-1.082959 -5.387483,-1.656961 -6.203142,-1.369139c-0.818622,0.28618 2.420401,3.823053 7.021846,7.934014c8.623543,7.106398 8.623543,7.106398 6.173602,1.370954zm14.312589,-42.096432c-0.543801,0 -1.090563,1.083132 -1.090563,2.166092c0,1.370781 0.546762,2.198744 1.090563,2.198744c0.78612,0 1.332882,-0.827963 1.332882,-2.198744c0,-1.08296 -0.546762,-2.166092 -1.332882,-2.166092zm-2.449941,22.40198c0,1.912132 4.598483,0.541523 6.475083,-1.91239c2.692343,-4.110875 2.420402,-5.194007 -1.09048,-5.194007c-2.420401,0 -5.384603,3.824867 -5.384603,7.106397zm7.837505,-59.017965c-0.818621,3.536873 -1.362422,6.532136 -1.09048,6.820045c0.818539,1.083132 2.967163,-7.106226 2.967163,-10.389397c0,-1.369313 -0.818703,0.287908 -1.876683,3.569352zm14.01119,55.193184c-1.362422,0 -2.420483,0.543251 -2.420483,1.625951c0,0.827963 0.78612,1.371041 1.601779,1.371041c1.090481,0 2.148543,-0.543078 2.423364,-1.371041c0.5438,-1.0827 -0.274821,-1.625951 -1.60466,-1.625951zm-3.239105,51.369959c1.604742,4.940392 4.025143,9.560138 5.387565,10.67575c1.362422,0.827962 4.054682,4.652657 5.659424,8.477179c1.604742,3.823226 3.239023,6.818576 3.510964,6.818576c1.329838,0 -1.362422,-25.142074 -3.239023,-32.791291c-1.634363,-6.563147 -2.148624,-12.586585 -1.876683,-22.146724c0.24232,-7.106225 0,-13.384833 -0.543718,-13.92627c-0.271941,-0.541523 -2.148542,-0.541523 -3.782823,0c-2.967164,1.08296 -3.239023,1.912391 -3.239023,7.935656c0,4.619833 -0.543882,7.106398 -1.876683,8.189099c-3.78274,2.453999 -3.510881,16.380183 0,26.768025zm-7.807883,-36.614258c-0.543801,-4.110961 -1.087519,-4.652484 -4.054682,-4.652484c-3.510964,0 -3.510964,0.286353 -3.239023,6.021797c0,3.538341 0.54668,7.649216 0.818539,9.560052c0.271942,1.91239 1.332883,3.824522 2.420484,4.110961c2.14846,1.370954 4.568861,-8.189098 4.054682,-15.040326zm-4.054682,27.595728c-2.420484,-3.281703 -4.054682,-6.818576 -4.297084,-7.647748c0,-1.082959 -1.36234,-3.823053 -2.964202,-6.276966c-1.634281,-2.453741 -3.510882,-5.481743 -4.329503,-6.564875c-2.69226,-3.824522 -2.148542,-0.54135 0.818621,7.934187c1.876601,5.736826 5.112744,10.93092 8.895485,15.296965c6.992224,7.392578 7.807966,6.022056 1.876683,-2.741563zm-4.297084,13.415844c2.934662,0 2.692342,-0.28618 -1.36234,-4.652225c-2.692342,-2.740353 -4.568943,-5.735617 -4.568943,-7.106484c0,-1.082873 -3.510964,-4.938838 -7.565564,-8.475711c-4.025225,-3.569265 -7.808048,-7.106138 -8.351766,-8.190566c-0.546763,-1.369313 -0.818622,-1.369313 -0.818622,0.255169c0,1.657221 -1.32992,1.912132 -5.659424,1.08296c-2.964201,-0.541609 -5.384602,-0.541609 -5.384602,-0.253701c0,0.541523 1.087518,3.823226 2.178081,7.106138c1.876683,5.449264 2.69226,6.565048 8.623625,8.730967c3.753284,1.370781 9.684485,4.652398 13.467308,7.106139c3.510964,2.486651 7.807966,4.397314 9.442247,4.397314zm-42.065907,9.273699c1.09048,0 2.695222,-0.54135 3.78274,-1.370522c1.876684,-1.910922 0.274904,-1.910922 -3.23606,0c-1.604742,0.829172 -1.876601,1.084342 -0.54668,1.370522zm-2.964202,-6.819958c2.692343,-1.11397 11.318848,-2.198571 19.156353,-2.198571c14.79731,-0.25517 17.764391,-1.0827 11.833026,-2.740094c-1.876518,-0.54135 -6.173602,-1.91239 -9.684484,-3.281703c-6.203224,-2.453741 -18.884494,-1.625951 -20.214414,1.114402c-0.274821,0.542819 -1.634281,0.829172 -2.967081,0.542819c-2.692343,-0.829259 -5.387565,1.369485 -6.203225,5.735616c-1.09048,3.536614 0.81566,3.824522 8.079825,0.827531zm-21.547214,6.278608c0.5438,2.198744 3.239022,2.453741 5.387564,0.54135c1.329839,-1.082873 1.329839,-1.624223 0,-3.281444c-1.09048,-1.62621 -1.8766,-1.62621 -3.510881,-0.25517c-1.090481,0.796779 -1.876683,2.166092 -1.876683,2.995264zm-8.623626,19.120277c1.058062,0 1.601862,0.827963 1.058062,2.453913c-0.242402,1.115612 -1.058062,2.198571 -1.604742,2.198571c-0.815659,0 -1.32992,-1.082959 -1.32992,-2.198571c0,-1.338129 0.78612,-2.453913 1.8766,-2.453913z" stroke-width="1.5" stroke="url(#svg_2)" fill="url(#svg_70)"/>
  <path id="svg_34" d="m738.377192,484.283516c-0.883774,0 -1.338033,-0.927704 -1.338033,-2.040188c0,-0.927489 0.227095,-1.827975 0.883774,-1.827975c0.454259,0 1.138088,0.900486 1.365183,1.827975c0.454259,1.350406 0,2.040188 -0.910924,2.040188zm151.071871,52.933645c2.02193,0 2.47612,0.237923 1.338033,1.82776c-0.656679,1.112484 -2.021861,2.039972 -2.67854,2.039972c-0.68376,0 -1.365183,-0.927489 -1.365183,-2.039972c0,-1.139773 0.910992,-1.82776 2.70569,-1.82776zm-141.16251,-64.749772c-2.021861,-0.450135 -2.249025,-2.729539 0,-3.41774c1.138019,-0.211926 1.794766,0.450064 1.794766,1.827975c0,1.13963 -0.656748,1.801906 -1.794766,1.589765zm-25.202954,72.00817c2.70569,-0.662348 2.70569,-1.138409 1.794766,-2.702321c-0.681423,-1.138409 -0.908518,-2.516177 -0.454259,-2.966384c0.227095,-0.689423 1.365183,0 2.021861,1.35055c0.910924,1.827975 1.592278,2.067334 3.387044,0.927489c1.113412,-0.68813 2.021861,-1.139486 2.021861,-0.450064c0,0.450064 0.683829,0 1.567602,-0.927489c1.365251,-1.35055 1.592346,-4.318155 0.227164,-5.908064c-1.110938,-1.35055 -6.749413,-0.900343 -8.317015,0.68813c-0.908518,1.139845 -1.592346,0.901779 -2.47612,-1.138193c-1.365183,-3.391959 -1.365183,-3.868163 1.794698,-4.080089c2.70569,0 2.70569,0 0.454259,-1.377768c-1.135613,-0.662348 -2.248957,-2.039972 -2.248957,-2.940459c0,-2.27926 3.135205,-3.62981 4.500388,-2.039901c0.454259,0.662205 1.338102,1.35055 2.249025,1.35055c1.794766,0 10.363552,-7.708893 10.363552,-9.298802c0,-0.689351 0.886248,-1.139414 1.794766,-0.689351c1.113343,0.239287 3.135274,-0.450064 5.184285,-1.589909c2.905635,-1.827831 2.905635,-2.039972 1.338033,-5.006356c-1.110938,-2.039972 -2.47612,-2.729539 -5.636069,-2.729539c-3.589464,0 -4.500388,0.450279 -5.611325,3.179818c-0.456733,1.82776 -1.821847,3.178381 -2.70569,3.178381c-1.567602,0 -2.021861,-2.038752 -0.454259,-3.178381c0.681354,-0.450279 1.135613,-2.039972 1.135613,-3.629881c0,-2.490323 -0.454259,-2.940459 -3.387044,-2.278039c-2.932785,0.450064 -2.932785,0.237923 -2.249025,-3.179961c0.454259,-2.039901 1.110938,-3.867732 1.567671,-4.079873c0.454259,-0.237923 0.908449,-2.278039 0.908449,-4.318011c0,-4.080304 1.340507,-4.768434 3.819102,-1.827975c1.135544,1.589837 1.819442,1.827975 2.248957,0.450064c0.454259,-0.900343 2.046537,-1.112484 4.525132,-0.66242c3.362369,0.900486 3.589464,0.66242 3.135205,-2.039972c-0.227095,-1.589693 -0.456665,-3.417668 -0.68376,-3.867732c0,-0.688345 -1.110938,-1.589909 -2.451445,-2.278254c-2.70569,-1.139414 -3.387044,-3.867732 -0.910924,-3.867732c0.683829,0 1.340439,-0.450279 1.340439,-1.351986c0,-0.688345 1.365251,-1.138409 3.159949,-0.927632c2.478595,0.239287 3.816628,-0.662061 7.203672,-5.430279c2.478595,-3.417884 4.273292,-5.245715 4.500456,-4.318227c0.227095,1.138409 1.365183,1.800614 2.478526,1.800614c1.794766,0 2.02193,-0.662205 1.365251,-3.628589c-0.22957,-2.040116 -1.365251,-4.530152 -2.049011,-5.669997c-2.02193,-2.517182 -2.02193,-5.457641 0,-4.557514c1.592278,0.901779 6.546924,-1.588473 6.546924,-3.17831c0,-0.689423 0.659153,-1.13963 1.567602,-1.13963c0.910992,0 1.340507,1.377696 1.340507,3.179746c0,2.278039 0.454259,3.178525 1.592346,2.516105c0.883774,-0.476132 1.567671,-1.827975 1.567671,-2.728246c0,-2.729682 7.203603,-7.497973 8.998301,-6.146202c0.683897,0.450423 1.365183,0 1.59489,-1.589693c0.65661,-3.179746 4.725008,-5.669997 6.519706,-4.080089c0.910992,0.662205 1.794835,0.450279 2.024405,-0.237923c0.45419,-0.901707 2.248957,-1.589909 4.270818,-1.802194c2.021861,-0.237923 4.727551,-1.13963 5.865639,-2.067118c4.270818,-2.940459 8.544179,-2.728318 10.338877,0.451644c1.138088,2.277895 1.592278,2.277895 1.592278,0.687986c0,-2.040116 0.886317,-2.278039 6.295223,-1.589693c8.568855,0.901707 9.909362,0.901707 13.069311,-0.238138c2.021861,-0.662348 2.705621,-0.450207 2.705621,1.377552c0,1.139845 0.656748,2.040188 1.567671,2.040188c0.681354,0 1.338033,-0.66242 1.338033,-1.351843c0,-1.82776 3.616682,-2.728246 6.776563,-1.82776c2.451445,0.901707 2.67854,1.139414 2.021861,7.259619c-0.227095,3.655806 0,6.146058 0.429584,6.146058c0.45419,0 0.910924,-1.589909 0.910924,-3.867948c0,-3.842022 2.47612,-5.430639 3.387044,-2.278111c0.227164,1.138481 0.883774,0.688202 1.338033,-1.112412c1.138156,-4.769655 3.616682,-2.279475 2.932785,2.940459c-0.681285,4.318011 -0.681285,4.318011 1.340576,2.728102c1.138019,-0.688202 2.021793,-2.490036 2.021793,-3.628589c0,-1.139702 0.683897,-2.491472 1.592415,-2.967677c1.794629,-0.900127 3.819033,2.51632 3.15988,5.007577c-0.227095,1.138624 -0.227095,2.040116 0.429515,2.040116c0.456733,0 0.910992,-0.662205 0.910992,-1.13963c0,-0.662348 1.113343,-0.900486 2.478526,-0.450064c2.930379,0.688202 3.359894,2.515961 0.883843,3.628445c-0.656679,0.477425 -1.340507,1.589909 -1.340507,2.517541c0,1.589909 0.456665,1.589909 2.932785,0c4.043723,-2.728246 5.838421,-2.517541 6.522318,0.450064c0.45419,1.589909 1.340439,2.279331 2.248957,1.589909c0.910924,-0.238066 2.932785,0.689423 4.500456,2.278039c1.365183,1.351771 3.387044,2.490252 4.297968,2.490252c1.340507,0 1.340507,1.139773 0.883774,4.319376c-0.45419,3.417884 -0.45419,3.867948 0.910992,2.490395c1.794698,-2.252329 2.47612,-2.040332 3.135274,1.138193c0.227095,1.589909 1.819373,2.729539 3.614139,3.41774c2.021861,0.451644 3.135274,1.589837 3.135274,2.94168c0,1.377696 0.681285,2.966384 1.365183,3.868091c1.794766,1.589693 1.338033,6.357984 -0.683897,7.947821c-0.681285,0.476204 -1.567534,0.238138 -1.794698,-0.450064c-0.45419,-0.689566 -2.021861,-0.689566 -4.954715,0c-4.727551,1.588473 -5.611325,2.039972 -4.500388,4.10587c0.683829,1.35055 8.546585,0.900486 12.842147,-0.689423c1.340507,-0.688273 1.794766,0 1.794766,3.179818c0,2.277895 -0.454259,4.080089 -1.135613,4.080089c-0.456733,0 -0.886248,0.68813 -0.886248,1.82776c0,2.729395 1.113412,2.490036 4.046197,-0.688345c1.565128,-1.82776 2.476052,-2.27926 3.589464,-1.139414c1.135613,1.139414 1.365183,1.139414 1.365183,-0.688345c0,-1.113848 -0.456733,-2.039972 -1.138019,-2.039972c-0.429584,0 -0.886317,-0.901707 -0.886317,-1.802194c0,-1.139486 0.659153,-2.039972 1.567602,-2.039972c0.683829,0 1.592346,0.450064 1.592346,1.112484c0,0.68971 0.886248,1.589837 2.024336,1.827975c1.565197,0.689566 2.021861,1.589909 1.794698,4.318155c-0.456665,5.219575 0.454328,6.809627 3.816628,5.909285c1.592346,-0.451644 2.476052,0 1.794766,0.900343c-0.20242,0.450064 0,1.589909 0.454259,2.065754c1.821847,1.351914 1.138019,4.530511 -0.883843,4.530511c-2.478526,0 -3.159949,1.139414 -1.819373,3.179602c0.908449,1.13963 1.592278,1.35055 2.476052,0.450207c2.049011,-2.278039 2.478595,-0.450207 2.70569,8.637602c0,4.555934 0.454259,8.185959 0.908518,8.185959c1.113343,0 0.683829,5.007577 -0.908518,7.04755c-0.886248,1.138409 -0.886248,2.250821 -0.227095,3.17831c1.592278,2.040188 0,7.948252 -2.024405,7.948252c-1.794629,0 -5.181742,4.318011 -5.181742,6.358127c0,2.491616 -2.905635,0 -3.589464,-2.728318c-0.681354,-2.49018 -0.681354,-2.49018 -1.138088,-0.689423c-0.429515,2.06719 2.024336,8.425318 4.070941,10.227152c1.340439,1.377911 -1.138088,3.655806 -2.932854,2.728318c-0.910992,-0.450064 -1.340507,-1.800614 -1.340507,-3.178381c0,-3.867732 -5.636069,-13.617962 -9.909362,-17.273625c-2.273632,-1.802194 -4.295562,-3.842166 -4.295562,-4.530296c0,-1.377768 -7.206078,-5.669997 -11.2498,-7.047693c-2.2515,-0.689423 -2.932854,-0.450135 -2.932854,1.377696c0,1.35055 -0.429515,1.800614 -1.340507,1.35055c-2.021861,-0.900486 -2.932785,1.139845 -1.138019,3.179818c2.478526,2.49018 2.049011,5.457641 -0.656679,4.318011c-1.819442,-0.688202 -2.046605,-0.450279 -1.365183,3.417812c0.227095,2.252114 0.683829,5.219575 0.683829,6.570125c0,1.377768 0.45419,2.278254 0.908449,2.278254c0.659222,0 0.886248,-0.450279 0.429584,-1.138409c-0.227095,-0.689566 0.229638,-1.351843 1.138019,-1.351843c0.683897,0 1.340507,0.901564 1.340507,1.801906c0,0.927632 -0.88618,1.82776 -2.478526,1.590052c-1.338033,0 -2.47612,-0.66242 -2.47612,-1.112627c0,-2.067334 -6.068059,-16.135359 -7.862756,-18.201257c-2.02193,-2.252329 -0.681423,-2.940459 -16.658843,7.735823c-2.476052,1.589909 -5.181742,5.007577 -6.546924,7.497973c-1.113412,2.490036 -2.90811,5.007577 -3.816628,5.457641c-0.910924,0.450279 -4.273292,4.080089 -7.206146,7.948036c-12.615052,17.034266 -10.566041,19.074382 -9.682198,53.861277c3.819033,26.36007 3.819033,26.36007 3.819033,26.36007c-9.000844,0 -9.000844,0 -9.000844,0c-7.430767,0 -7.430767,0 -7.430767,0c0.681354,-24.321462 0.681354,-24.321462 0.681354,-24.321462c0.45419,-2.038608 0.683829,-6.145843 0.910992,-8.424097c0.227095,-1.351771 -6.319898,-7.259834 -6.092734,-8.610241c0,-1.13963 6.774088,2.040188 6.774088,0.900343c1.113343,-16.584202 0,-29.777954 -2.932854,-36.79965c-0.681354,-4.318227 -6.319829,-18.199892 -7.203603,-18.199892c-0.227164,0 -1.819442,-1.351771 -3.387044,-2.94168c-2.705759,-2.96624 -3.816628,-3.178525 -18.910274,-4.080089c-16.204516,-0.926268 -16.204516,-0.926268 -16.204516,-0.926268c-3.841303,3.178525 -3.841303,3.178525 -3.841303,3.178525c-2.248957,2.067118 -4.500388,3.41774 -5.157135,3.41774c-1.365183,0 -7.003658,4.769439 -9.455103,7.497542c-0.227095,0 -0.45419,-0.237707 -0.45419,-0.450064c-0.227164,0 -0.227164,0 -0.227164,-0.238066c-0.227095,-0.662205 -0.456665,-1.351771 -0.910924,-2.039972c1.365183,-1.13963 2.478526,-1.829052 2.932785,-1.589693c0.681354,0.450064 1.340507,0 1.340507,-1.139845c0,-1.138409 -1.340507,-1.589837 -4.929971,-1.138409c-4.298036,0.688345 -5.41138,0.926268 -6.092734,3.62866c-1.113412,1.377696 -1.340507,3.417812 -0.681354,5.007721c-0.229638,2.039972 -0.229638,3.417668 0,3.417668c0.227095,0 0.45419,-0.450064 1.135613,-0.927489c0,0.238138 0.227095,0.477425 0.456665,0.689423c-2.251431,0.688202 -3.389518,2.728318 -3.159949,4.76829c-1.138019,0.927489 -2.251431,1.377696 -3.616545,2.065898c0,0 0,-0.237923 -0.202489,-0.237923c0.886248,-2.039972 1.340507,-4.318227 1.567602,-7.735895c0.456733,-3.842166 0.227095,-6.358127 -0.45419,-6.358127c-0.454259,0 -0.910924,0.927489 -0.910924,2.277823c0.227026,1.139845 -0.202489,2.278254 -1.111007,2.490395c-0.683829,0.237923 -1.138019,-0.212141 -1.138019,-1.35055c0,-2.729539 -0.883843,-2.729539 -2.908179,-0.239287c-0.908449,0.927489 -2.703216,2.040116 -4.270818,2.517541c-2.049011,0.662205 -2.70569,0.211926 -3.616614,-2.278254c-0.681354,-2.039972 -1.135613,-4.319376 -0.681354,-5.219718c0.227095,-1.13963 0.227095,-2.065898 -0.656679,-2.065898c-2.478595,0 -0.683829,-3.630025 2.248957,-4.319447zm19.364465,-52.244222c-1.365183,-0.237923 -2.478595,-0.900343 -2.932785,-1.827831c-0.227164,-1.351771 -0.454259,-1.351771 -0.454259,0c0,0.927489 -0.910924,1.589909 -1.794766,1.827831c-1.592278,0 -1.592278,0.238066 0.227164,1.139845c1.110869,0.450064 2.248957,1.138193 2.476052,1.138193c0.20242,0 1.340507,-0.68813 2.478595,-1.138193c2.021861,-1.139845 2.021861,-1.139845 0,-1.139845zm178.523782,36.587509c0.429584,0.450279 0.883843,-0.239287 0.883843,-1.377696c0,-0.901564 -0.454259,-1.80205 -0.883843,-1.80205c-0.68376,0 -1.138019,0.450207 -1.138019,1.112484c0,0.689566 0.454259,1.617055 1.138019,2.067262zm-1.592278,2.040116c-0.227095,-0.689566 -1.340507,-1.589837 -2.251431,-1.589837c-0.656679,0 -1.110938,0.900271 -0.656679,1.589837c0.20242,0.688202 1.113343,1.138481 2.021861,1.138481c0.886248,0 1.113343,-0.450279 0.886248,-1.138481zm-2.021861,10.225931c0.681354,0 1.592278,-0.237923 1.592278,-0.450064c0,-0.477425 -0.910924,-0.927489 -1.592278,-1.377768c-0.886248,-0.450207 -1.567671,-0.212141 -1.567671,0.450279c0,0.689423 0.681423,1.377552 1.567671,1.377552zm1.794766,-21.591636c0.908449,-0.450423 1.365114,-1.139773 1.135613,-1.802194c-0.681423,-1.615619 -4.498051,-1.615619 -4.498051,0c0,1.802194 1.338102,2.490395 3.362438,1.802194zm-12.363213,-17.035846c-1.138088,0.689566 -1.819442,2.040116 -1.592415,2.729539c1.138088,1.800829 2.478664,1.35055 3.614208,-1.589909c1.113412,-2.729539 0.659153,-3.179602 -2.021793,-1.13963zm-4.298036,34.997672c5.86557,6.119989 6.092734,6.358127 6.092734,4.318155c0,-1.138409 -0.454259,-2.065898 -1.138088,-2.065898c-0.65661,0 -1.794698,-1.139845 -2.476052,-2.49018c-0.656748,-1.351986 -2.021861,-2.729754 -3.135274,-2.729754c-2.046537,0 -2.046537,0.239359 0.656679,2.967677zm-4.725146,-10.7035c1.362777,0 2.02193,-0.450064 1.135682,-0.662276c-0.681354,-0.450207 -1.794766,-0.450207 -2.47612,0c-0.683897,0.212213 0,0.662276 1.340439,0.662276zm-6.522249,-30.890437c0.681354,0.688345 2.703216,1.588688 4.497913,2.040188c3.160018,0.68813 3.387113,0.68813 1.592346,-1.13963c-2.046537,-2.252329 -7.657862,-2.940459 -6.09026,-0.900558zm-13.728464,-37.699777c-0.681354,0.662205 -0.908449,2.039972 -0.681354,2.940243c0.454259,1.827975 1.794766,0.238138 1.794766,-2.49018c0,-1.377768 -0.227164,-1.589909 -1.113412,-0.450064zm6.749413,49.065697c1.794766,1.138265 2.478595,1.138265 3.389587,-0.4515c1.794698,-2.490323 0.65661,-3.628589 -2.705759,-2.039901c-2.70569,1.113705 -2.70569,1.113705 -0.683829,2.491401zm-4.497913,-11.36592c3.387044,-2.489964 3.387044,-2.489964 0.681354,-2.489964c-1.819442,0 -3.159949,0.900127 -3.841303,2.489964c-0.429584,1.588688 -0.886248,2.490395 -0.659153,2.490395c0,0 1.794766,-1.351914 3.819102,-2.490395zm-4.954715,36.825647c1.565128,2.490395 4.270887,2.490395 3.387044,-0.238066c-0.227095,-0.901564 -0.456665,-2.039972 -0.456665,-2.279331c0,-0.212141 -0.908518,-0.212141 -2.021861,0.239359c-1.819442,0.450207 -1.819442,1.138409 -0.908518,2.278039zm-6.978982,-9.325732c1.794698,2.490323 2.70569,2.728246 4.727551,0.900486c1.340507,-1.138409 1.340507,-1.138409 0,-1.35055c-0.681354,0 -2.47612,-0.239359 -4.043723,-0.689566c-2.251431,-0.900343 -2.251431,-0.900343 -0.683829,1.13963zm-0.227095,-24.771597c1.138019,0 2.478526,-3.62981 1.794766,-4.768218c-0.883843,-1.13963 -2.703284,0.68813 -2.703284,2.728246c0,1.139702 0.454259,2.039972 0.908518,2.039972zm-11.0203,15.445793c-1.365183,0.927489 -1.138019,1.139845 0.656748,1.139845c1.138019,0 2.476052,-0.451644 2.932785,-1.139845c0.681285,-1.801834 -1.567671,-1.801834 -3.589533,0zm0.227164,20.002086c0.20242,0.239359 0.883774,-0.238066 1.567602,-1.35055c0.681285,-0.927489 2.703284,-2.067118 4.270818,-2.517398c2.021861,-0.688345 2.932854,-1.800757 2.932854,-3.417812c0,-3.840586 -3.159949,-2.702393 -6.522386,2.279403c-1.365114,2.516177 -2.476052,4.556293 -2.248888,5.006356zm-2.478526,-10.464141c2.021793,-2.490036 2.021793,-2.94168 0.429446,-3.629881c-1.794698,-0.900486 -3.132731,1.139845 -3.132731,4.76829c-0.22957,2.729539 -0.22957,2.729539 2.703284,-1.138409zm-3.614208,-26.811498c0.227095,1.82776 0.681354,1.589837 2.021793,-1.80205c1.592415,-3.62866 1.592415,-4.106086 0.227164,-4.106086c-0.883774,0 -1.794766,0.688345 -2.021861,1.828047c-0.454259,0.900271 -0.454259,2.967605 -0.227095,4.080089zm-1.113412,-18.62439c0,0.926268 0.429515,3.178525 0.886248,4.76829c0.681354,3.179746 0.681354,3.179746 1.365183,0.450207c0.883774,-2.728102 0,-6.808191 -1.365183,-6.808191c-0.659153,0 -0.886248,0.687986 -0.886248,1.589693zm-15.772526,7.496536c-1.113343,1.589909 -1.113343,3.179818 -0.22957,7.948036c0.456733,3.41774 1.594821,6.835552 2.251431,7.497973c1.138088,1.13963 1.365183,0 1.592278,-7.046473c0,-8.610456 -1.138019,-11.339779 -3.614139,-8.399536zm2.021861,24.083395c0.227164,0.450279 0.681354,-0.450207 0.454259,-1.801978c0,-1.377768 -0.227095,-1.589909 -0.681354,-0.688202c-0.202489,0.900343 -0.202489,2.039972 0.227095,2.49018zm8.114596,-21.353857c-0.227095,0.450279 -0.227095,3.630025 0.454259,7.046473c0.683829,5.909285 0.886248,6.147207 1.113412,1.829052c0.227095,-7.047693 -0.227164,-10.465362 -1.567671,-8.875525zm-7.660337,64.087424c1.365183,-2.729539 3.614208,-7.285831 5.18181,-10.015155c1.794698,-2.940674 2.932785,-6.808406 3.387044,-10.676354c0.659153,-6.120205 0.659153,-6.120205 0.659153,-6.120205c-2.70569,3.391887 -2.70569,3.391887 -2.70569,3.391887c-1.340507,1.827975 -2.249025,3.867948 -2.249025,4.556293c0,1.801906 -4.273292,13.167611 -5.6138,15.207727c-0.681354,1.138193 -1.819442,3.655806 -2.021861,5.457641c-1.138088,5.218641 0.886248,4.318155 3.362369,-1.801834zm-15.977421,23.393829c0.683829,4.530152 0.683829,4.530152 2.932854,-5.21979c1.340507,-5.245787 3.362369,-13.643743 4.727551,-18.863605c1.794698,-6.596265 2.478526,-12.053906 2.478526,-19.763804c0,-10.014149 -0.22957,-10.22629 -2.024267,-9.086445c-4.068467,2.940387 -6.319898,11.126346 -7.228416,27.022203c-0.429515,8.187539 -0.886248,16.373497 -1.340439,18.175547c-0.227164,1.827831 0,5.245644 0.45419,7.735895zm0.456733,-58.153579c0.883774,2.252257 1.794766,4.080089 1.794766,4.080089c0.227095,0 1.337964,-1.377768 2.248957,-3.179602c1.138019,-1.588616 2.932785,-3.416448 3.614208,-4.078868c2.680946,-2.067118 3.3623,-8.425246 1.113343,-12.743401c-1.794766,-3.867948 -6.749413,-8.187395 -7.660405,-6.809627c-0.45419,0.450207 -1.110869,4.769655 -1.567602,9.776011c-0.908449,7.497757 -0.908449,9.777017 0.456733,12.955398zm-1.365183,-52.033159c0.454259,0.4515 0.908449,0.212141 0.908449,-0.475989c0,-0.901707 -0.45419,-1.802194 -0.908449,-2.252329c-0.683829,-0.477353 -1.113412,-0.238066 -1.113412,0.66242c0,0.688202 0.429584,1.589909 1.113412,2.065898zm-72.932727,61.093678c3.135205,0.239287 3.135205,0.239287 3.135205,0.239287c3.159949,0 6.319898,-2.94168 6.319898,-5.457641c0,-1.589909 -0.227095,-1.589909 -9.455103,5.218354zm1.340507,-6.358199c0,0.689782 0.454259,1.377768 1.138088,1.377768c1.110938,0 4.270818,-4.080089 3.589464,-4.768218c-0.683829,-0.927489 -4.727551,2.039901 -4.727551,3.390451zm2.478526,-15.657719c3.387113,4.531373 4.954715,4.98158 6.749413,2.039901c1.819442,-2.728102 0.227164,-4.556077 -5.184216,-5.218498c-4.497982,-0.689566 -4.497982,-0.689566 -1.565197,3.178597zm-2.478526,-12.742252c0,0.475989 1.592278,1.588473 3.387044,2.515961c8.317084,4.318227 9.909362,4.318227 9.682198,0.212356c0,-2.490395 -3.387044,-7.94818 -4.727551,-7.94818c-1.592278,0 -8.341691,4.318155 -8.341691,5.219862zm12.160793,32.268133c2.47612,0 2.703216,-0.688345 0.681354,-1.800829c-0.910924,-0.239287 -1.794766,0 -2.021861,0.66242c-0.456733,0.687986 0.227095,1.138409 1.340507,1.138409zm1.794766,-53.383924c-1.567671,-1.139773 -3.592007,-1.589837 -4.500456,-1.139773c-1.567602,0.901707 -1.340507,1.139773 0.908449,1.82776c1.113412,0.451644 3.389587,0.901779 4.500456,1.11392c1.340507,0 1.340507,-0.4515 -0.908449,-1.801906zm-0.20242,8.185959c1.337964,0 1.567602,-0.238066 0.656679,-0.926268c-0.656679,-0.211997 -1.567671,-0.211997 -2.02193,0.238138c-0.227095,0.450064 0.454259,0.900486 1.365251,0.68813zm1.337964,5.219934c-3.15988,0 -3.15988,0.211926 -1.337964,2.039901c2.248957,2.039972 2.905635,2.277895 3.816628,0.900343c1.567534,-1.800829 0.45419,-2.940243 -2.478664,-2.940243zm4.500525,-25.672083c-0.910992,-1.13963 -1.138088,0.900486 -0.681423,3.390666c0.227095,1.589909 1.135613,2.967461 1.592346,2.967461c0.883774,0 0.227095,-5.007577 -0.910924,-6.358127zm7.203603,29.989879c-0.45419,0.212356 0.683829,1.589909 2.024336,2.729682c1.365183,1.138409 2.476052,1.588544 2.476052,0.900343c0,-1.589693 -3.816559,-4.557298 -4.500388,-3.630025zm-5.636069,1.589909c-2.021861,1.590052 -0.883774,5.669926 2.046605,6.358271c1.567602,0.450135 4.046197,2.278111 5.6138,4.079945c1.365183,1.827975 2.476052,2.517541 2.476052,1.827975c0,-2.278039 -8.998369,-13.19368 -10.136457,-12.266191zm9.228008,18.863821c-1.340439,-3.657171 -2.90811,-5.458 -5.840964,-6.59763c-2.248957,-0.900343 -4.500388,-1.377552 -5.181742,-1.138265c-0.683829,0.237923 2.021861,3.178381 5.865639,6.596122c7.203603,5.908064 7.203603,5.908064 5.157066,1.139773zm11.955899,-34.997816c-0.454259,0 -0.910992,0.900486 -0.910992,1.800829c0,1.13963 0.456733,1.827975 0.910992,1.827975c0.656679,0 1.113412,-0.688345 1.113412,-1.827975c0,-0.900343 -0.456733,-1.800829 -1.113412,-1.800829zm-2.046537,18.62439c0,1.589693 3.841303,0.450207 5.408906,-1.589909c2.249025,-3.417668 2.021861,-4.318155 -0.910924,-4.318155c-2.021861,0 -4.497982,3.17989 -4.497982,5.908064zm6.546993,-49.065913c-0.683829,2.940459 -1.138088,5.430639 -0.910924,5.669997c0.68376,0.900486 2.478595,-5.90792 2.478595,-8.637459c0,-1.138409 -0.683897,0.239359 -1.567671,2.967461zm11.704128,45.886095c-1.138088,0 -2.02193,0.451644 -2.02193,1.351771c0,0.688345 0.656679,1.139845 1.338033,1.139845c0.910924,0 1.794766,-0.4515 2.024336,-1.139845c0.454259,-0.900127 -0.22957,-1.351771 -1.340439,-1.351771zm-2.705759,42.70757c1.340507,4.107306 3.362369,7.948036 4.500456,8.875525c1.138088,0.688345 3.387044,3.868091 4.727551,7.047693c1.340507,3.178525 2.70569,5.668777 2.932854,5.668777c1.110869,0 -1.138088,-20.902429 -2.70569,-27.261777c-1.365251,-5.45642 -1.794835,-10.464141 -1.567671,-18.412177c0.20242,-5.90792 0,-11.127782 -0.45419,-11.577917c-0.227164,-0.450207 -1.794766,-0.450207 -3.159949,0c-2.478595,0.900343 -2.70569,1.589909 -2.70569,6.597486c0,3.840802 -0.454328,5.908064 -1.567671,6.808191c-3.15988,2.040188 -2.932785,13.618034 0,22.2542zm-6.522249,-30.440086c-0.454259,-3.41774 -0.908449,-3.867948 -3.387044,-3.867948c-2.932854,0 -2.932854,0.238066 -2.70569,5.006356c0,2.94168 0.456665,6.359348 0.68376,7.947964c0.227164,1.589909 1.113412,3.179602 2.02193,3.41774c1.794698,1.139773 3.816559,-6.808191 3.387044,-12.504114zm-3.387044,22.942329c-2.02193,-2.728318 -3.387044,-5.668777 -3.589533,-6.358127c0,-0.900343 -1.138019,-3.178381 -2.47612,-5.218498c-1.365183,-2.039972 -2.932785,-4.55737 -3.616614,-5.457856c-2.248957,-3.179602 -1.794766,-0.450064 0.683829,6.596265c1.567602,4.769439 4.270887,9.087666 7.430767,12.717475c5.840895,6.145986 6.522318,5.006572 1.567671,-2.27926zm-3.589533,11.153564c2.451445,0 2.249025,-0.237923 -1.138019,-3.867732c-2.249025,-2.278254 -3.816628,-4.768434 -3.816628,-5.908135c0,-0.900271 -2.932854,-4.106014 -6.319829,-7.046473c-3.362438,-2.967389 -6.522386,-5.907848 -6.976577,-6.809412c-0.456733,-1.138409 -0.683829,-1.138409 -0.683829,0.212141c0,1.377768 -1.110938,1.589693 -4.727551,0.900343c-2.47612,-0.450279 -4.497982,-0.450279 -4.497982,-0.21092c0,0.450207 0.908449,3.178525 1.819442,5.907848c1.567671,4.530368 2.248957,5.458 7.203672,7.258685c3.135274,1.13963 8.089851,3.867876 11.2498,5.907848c2.932854,2.067334 6.522318,3.655806 7.8875,3.655806zm-35.139397,7.709898c0.910924,0 2.251431,-0.450064 3.15988,-1.139414c1.567671,-1.588688 0.229638,-1.588688 -2.703216,0c-1.340507,0.689351 -1.567602,0.901492 -0.456665,1.139414zm-2.47612,-5.669926c2.249025,-0.926124 9.455103,-1.827831 16.002096,-1.827831c12.360807,-0.212141 14.839333,-0.900127 9.884618,-2.278039c-1.567534,-0.450064 -5.157066,-1.589909 -8.089851,-2.728318c-5.18181,-2.039972 -15.775001,-1.351771 -16.885939,0.926483c-0.22957,0.451284 -1.365183,0.689351 -2.478526,0.451284c-2.249025,-0.689423 -4.500456,1.138553 -5.18181,4.768434c-0.910924,2.940243 0.681354,3.179602 6.749413,0.687986zm-17.999282,5.219862c0.454259,1.827975 2.70569,2.039972 4.500456,0.450064c1.110869,-0.900271 1.110869,-1.350335 0,-2.728102c-0.910924,-1.351986 -1.567602,-1.351986 -2.932785,-0.212141c-0.910924,0.66242 -1.567671,1.800829 -1.567671,2.49018zm-7.203672,15.896072c0.883843,0 1.338102,0.688345 0.883843,2.040116c-0.202489,0.927489 -0.883843,1.827831 -1.340507,1.827831c-0.681354,0 -1.110938,-0.900343 -1.110938,-1.827831c0,-1.112484 0.656679,-2.040116 1.567602,-2.040116z" stroke-width="1.5" stroke="#56ffff" fill="url(#svg_71)"/>
  <path id="svg_39" d="m475.678247,20.459981c0,0 2.490262,0.968713 2.739292,1.695238c0.248988,0.726484 11.704259,-2.179534 14.194521,-3.874772c2.490262,-1.695238 8.217876,-1.507399 8.217876,-4.601337c0,-0.968713 -1.136153,-3.481277 0.996122,-2.663952c0.414669,0.159013 0.498103,1.45309 0.498103,1.45309c0,0 -0.435782,-1.195775 -1.073959,-0.862786c-0.311606,0.162641 0.451892,2.16718 0.824887,2.800172c0,0 20.847244,-3.145108 25.400761,-1.937386c1.826223,0.484296 7.96893,1.210861 7.802868,3.794042c0,0 -8.466525,2.822597 -9.795068,13.158217c-0.165978,1.29155 -10.860337,-1.644313 -17.929934,11.382168c-1.577193,2.906058 -1.992243,1.856616 -2.490304,1.695238c-0.498061,-0.161459 -10.45915,-6.215887 -18.677026,5.327781c0,0 0.415051,-0.080689 0.498061,0.242189c0.08301,0.322918 4.067454,-0.887943 4.233474,1.210943c0,0 -1.856536,-0.818874 -1.441485,-0.011539c0.415008,0.807214 0.204515,1.73279 -0.052655,1.222318c-0.049263,-0.097772 -1.079132,-0.968673 -0.747134,-0.242107c0.332041,0.726484 -1.595168,2.393426 -1.697087,2.148954c-0.405596,-0.972994 0.950038,-2.068266 -1.540224,-3.117627c-2.490304,-1.049443 -9.38006,1.453009 -12.949411,9.202593c0,0 -0.24903,0.403607 -0.747091,-0.242189c-0.498061,-0.645795 -3.984444,-9.283364 -11.206241,-9.68697c0,0 -0.332041,1.210861 -1.49414,1.45305c-1.162142,0.242189 -0.913069,3.955461 -1.494182,2.663911c-0.581071,-1.291591 -0.461007,0.249691 -0.498061,0c-0.134648,-0.90837 0.425861,-2.326274 -1.245152,-1.695238c-0.218887,0.082646 -0.332041,1.372361 -0.747049,0.726566c-0.415051,-0.645795 0.512178,-1.802266 1.093207,-2.286602c0.581071,-0.484336 -1.936324,-0.53783 -0.844177,-1.103874c1.105459,-0.572935 4.233432,1.291631 2.988322,-0.726484c-1.245152,-2.018156 -8.40272,-11.443979 -18.677026,-5.085674c-1.826223,1.130132 -1.245152,-0.242229 -2.241274,-1.453131c-0.996079,-1.21082 -7.976053,-12.744499 -17.431874,-11.382168c-2.241274,0.322959 -1.245152,-1.695197 -1.992201,-2.421722c-0.747134,-0.726525 -5.257323,-13.433961 -9.712058,-12.350881c-0.996122,0.242107 -0.281548,-4.149334 8.217876,-3.632624c1.328162,0.080689 0.498061,-0.968713 1.992243,-0.726566c1.49414,0.242229 19.922135,2.744681 21.914336,3.390476c1.992243,0.645795 4.233474,1.259829 4.233474,-2.663911c0,-0.075714 -0.326868,-0.272442 -0.996122,0.242148c-0.295708,-0.257315 2.158263,-1.614509 1.743213,0.968713c-0.415051,2.583181 -1.322269,1.888826 0.24903,2.66387c2.224909,1.097432 3.987708,3.001018 7.470785,3.148329c1.909233,0.08073 11.536882,4.67697 13.696502,4.11696c1.245152,-0.322918 2.905312,-1.049443 2.241231,-1.45309c-0.664039,-0.403566 -2.905312,-2.986788 -2.739292,-4.359108c0.16602,-1.37232 0.664081,-2.421722 0,-2.906099c-0.664081,-0.484336 0.747091,-1.856656 1.992243,-0.242189c1.24511,1.614509 1.24511,2.82537 2.241231,2.906099c0.996122,0.08077 2.822345,-0.403566 3.486383,0c0,0 2.905355,-4.03619 4.482462,-3.390476c1.577193,0.645836 0.332041,1.533779 0.498061,2.179574c0.16602,0.645795 -1.66016,5.489362 -3.486341,5.327862z" stroke-width="1.5" stroke="#000000" fill="#000000"/>
  <path id="svg_40" d="m126.372161,728.188081c-4.736125,-6.152705 -12.101004,-6.854333 -13.871954,-15.611906c-1.388072,-4.763408 -14.473738,-11.15208 -6.729014,-2.602416c5.980298,5.151956 13.085264,24.154812 -1.627535,18.150843c-11.190184,-3.900674 -11.670028,-15.945593 -14.669529,-24.963198c-9.75417,-6.427754 2.521871,-20.01877 -7.980597,-28.25442c-8.91362,-8.597036 -2.705843,-24.698013 -15.442662,-30.793785c-6.393036,-2.46451 -9.160239,14.551804 -10.236653,2.103257c-3.502467,-12.590455 -15.872253,6.120334 -24.120771,4.136696c-6.656081,-0.549592 11.133899,-4.944677 2.644426,-6.127434c-4.991161,2.595161 -9.609189,7.082352 -10.39883,-0.345279c-6.004068,-3.386894 -18.594727,-8.795627 -18.267659,-14.176031c5.213919,-1.555697 22.815517,2.945796 19.765229,-3.30891c-5.234107,-1.886674 -6.184909,-7.044018 0.22584,-3.58276c12.633797,0.376427 27.444201,-4.413528 37.956324,4.747791c5.48316,3.204457 10.874395,14.69723 13.809799,3.528404c9.462364,-10.839943 28.555885,-11.758122 34.388997,-25.793133c1.411539,-6.790315 -4.33519,-10.664388 -9.217213,-12.039812c-0.949802,-2.23154 -2.566665,-11.705829 -6.60377,-6.924804c0.184005,-4.184528 3.971016,-14.191212 -4.417352,-9.761249c-0.850812,-8.912786 7.171005,-17.804809 -3.44078,-24.295209c9.942675,1.751867 7.982023,-9.014312 5.816416,-10.721788c5.893931,-0.794909 12.810736,-5.832518 9.561026,-12.073257c6.400651,11.036798 6.622589,-13.389677 11.892212,-2.861132c9.69877,1.510224 -3.01305,-8.230161 5.907439,-6.056076c5.0937,0.165543 3.96241,-5.301034 8.5383,-1.175221c6.056116,-3.138571 -4.64261,-12.623845 5.135634,-6.033366c3.287094,2.712343 13.752276,9.816368 11.874582,0.441978c9.291515,9.414024 16.603452,-8.744027 24.324341,-12.504382c3.062508,-3.479981 9.722195,-7.162881 3.58022,-0.519977c-4.077473,8.467655 -17.910969,17.62786 -14.189333,26.041704c-3.368667,2.912911 6.796791,6.573935 -1.295336,5.471147c-4.794009,4.915156 6.427208,14.11111 7.322716,21.846806c-2.570345,5.300325 -12.357613,11.3176 -16.31681,11.127417c1.447047,-6.824173 -1.689952,-15.71871 -10.852551,-11.8614c5.132707,8.920127 12.072053,17.441663 16.4198,27.142142c4.249609,9.536033 11.13962,20.548222 20.204385,8.275339c5.777622,-7.82222 22.282854,-7.708985 17.749005,4.99433c-2.317719,12.474285 3.887518,28.937831 -8.035702,37.530554c-7.192743,13.164461 -15.166864,-4.894829 -9.515929,-11.726818c-1.439916,-1.952365 -2.553846,-3.330553 1.659715,-5.999306c-0.870033,-2.001847 12.125921,-9.533324 5.576011,-14.154754c-7.449451,8.023318 -18.349723,17.310343 -15.320411,29.236897c2.458618,7.992232 -17.81888,21.694187 -16.197378,8.430333c0.363206,-5.154782 8.111717,-15.145327 6.328111,-16.432413c-5.657116,10.081802 -13.704638,19.767528 -25.865263,22.760828c-10.115254,0.569343 -15.414032,8.305023 -10.61049,16.887844c0.917999,12.162241 -5.841252,23.169673 -7.397395,35.011329c2.892684,12.559633 20.504142,15.09762 22.894638,27.909406c4.107612,8.604401 -6.167139,7.332807 -10.954271,4.925183l0.000025,0.000008zm-25.044983,-37.46944c-1.482685,-5.677336 -4.53394,14.758281 -0.772715,3.911885l0.563063,-1.916258l0.209652,-1.995635l0,0.000008z" stroke-width="1.5" stroke="#000000" fill="#000000"/>
  <line stroke-linecap="null" stroke-linejoin="null" id="svg_41" y2="600.5" x2="417.5" y1="707.5" x1="419.5" fill-opacity="null" stroke-width="1.5" stroke="#ffff00" fill="none"/>
  <line stroke-linecap="null" stroke-linejoin="null" id="svg_42" y2="601.5" x2="445.5" y1="704.5" x1="445.5" fill-opacity="null" stroke-width="1.5" stroke="#ffff00" fill="none"/>
  <line stroke-linecap="null" stroke-linejoin="null" id="svg_43" y2="581.5" x2="418.5" y1="695.5" x1="434.5" fill-opacity="null" stroke-width="1.5" stroke="#ffff00" fill="none"/>
  <line stroke-linecap="null" stroke-linejoin="null" id="svg_44" y2="581.5" x2="448.5" y1="718.5" x1="464.5" fill-opacity="null" stroke-width="1.5" stroke="#ffff00" fill="none"/>
  <line stroke-linecap="null" stroke-linejoin="null" id="svg_45" y2="580.5" x2="406.5" y1="712.5" x1="415.5" fill-opacity="null" stroke-width="1.5" stroke="#ffff00" fill="none"/>
  <line stroke-linecap="null" stroke-linejoin="null" id="svg_46" y2="593.5" x2="441.5" y1="712.5" x1="436.5" fill-opacity="null" stroke-width="1.5" stroke="#ffff00" fill="none"/>
  <line stroke-linecap="null" stroke-linejoin="null" id="svg_47" y2="600.5" x2="413.5" y1="739.5" x1="429.5" fill-opacity="null" stroke-width="1.5" stroke="#ffff00" fill="none"/>
  <line stroke="#ffff00" stroke-linecap="null" stroke-linejoin="null" id="svg_48" y2="597.500001" x2="480.5" y1="700.5" x1="480.5" fill-opacity="null" stroke-width="1.5" fill="none"/>
  <line stroke-linecap="null" stroke-linejoin="null" id="svg_49" y2="577.5" x2="463.5" y1="724.5" x1="463.5" fill-opacity="null" stroke-width="1.5" stroke="#ffff00" fill="none"/>
  <line stroke-linecap="null" stroke-linejoin="null" id="svg_50" y2="568.5" x2="497.5" y1="710.5" x1="500.5" fill-opacity="null" stroke-width="1.5" stroke="#ffff00" fill="none"/>
  <path transform="rotate(91.70706939697266 1027.5061035156248,622.9689941406249) " id="svg_53" d="m1066.5,878.5c-1,0 -192,-177 -89,-243c103,-66 69,-487 115,-119c46,368 -25,362 -26,362z" fill-opacity="null" stroke-width="1.5" stroke="#ffff00" fill="url(#svg_20)"/>
  <path transform="rotate(0.36610057950019836 583.5746459960749,653.9528808593633) " id="svg_54" d="m564.875848,772.025833c-9.895814,-3.548906 -7.349007,-14.720044 -7.853385,-22.666395c-0.116301,-30.89129 -0.030672,-61.783066 -0.056369,-92.674556c17.685647,-0.25272 35.371293,-0.606288 53.059697,-0.558115c-0.019246,35.476598 0.482566,70.961388 -0.120702,106.43158c-0.473764,9.50856 -11.540717,10.727694 -19.282409,9.807979c-8.583415,0.002964 -17.166481,-0.124081 -25.746832,-0.340493zm-25.494967,-92.454041c-5.600274,-0.57668 -10.23521,-14.037138 -3.65715,-14.004821c5.179458,-0.064738 10.358909,-0.129484 15.538375,-0.194229c0.836118,6.539043 -1.328133,15.850545 -10.278178,14.516365l-1.603047,-0.317307l0,0l0,-0.000008zm82.911248,-0.005267c-5.797256,-0.695368 -8.928631,-12.276804 -4.709397,-13.986208c5.535527,-0.069192 11.071062,-0.138391 16.606581,-0.207583c0.83758,6.541171 -1.332293,15.857979 -10.285908,14.514612l-1.611251,-0.320805c0,0 -0.000025,0 -0.000025,0l0,-0.000016zm-89.355843,-45.010049c0.456021,-10.817578 -0.901571,-21.861264 1.40384,-32.506994c3.375668,-8.289282 11.563857,-15.752909 21.03301,-16.445352c19.59932,0.158773 39.250293,-0.800581 58.807898,0.432321c11.660546,2.46755 20.964659,13.521076 19.857645,25.160143c0.270215,17.29072 0.132417,34.585034 0.19929,51.877451c-6.158979,0.075757 -12.317966,0.151514 -18.47692,0.227279c0,-15.563978 0,-31.127964 0,-46.691949c-3.610636,-4.054148 -6.685891,1.393723 -5.442325,4.860195c-0.01409,10.499777 -0.028181,20.999562 -0.042287,31.499339c-17.843247,0 -35.686494,0 -53.529741,0c-0.146258,-12.165216 -0.292509,-24.330439 -0.438767,-36.495655c-3.498396,-3.839075 -5.957588,1.422032 -4.845891,4.613737c-0.05896,13.995682 -0.117928,27.991356 -0.176888,41.987053c-6.163687,0.075789 -12.327382,0.15161 -18.491077,0.227391c0.04741,-9.58164 0.094771,-19.163335 0.142215,-28.744943l0,-0.000016zm46.845752,-56.355115c-9.494319,-1.64481 -16.830531,-10.113263 -17.056789,-19.336665c13.729686,0 27.459364,0 41.18905,0c0.485862,12.006076 -12.026886,21.530444 -24.13226,19.336665zm-21.280258,-26.915529c2.338474,-2.246716 4.345922,-5.258295 8.110257,-4.210482c12.434093,0 24.868177,0 37.302254,0c-0.399992,2.594014 0.759091,6.684128 -0.534144,8.420957c-16.41654,0 -32.833064,0 -49.249604,0c1.457079,-1.403491 2.914159,-2.806991 4.371222,-4.210482l0.000017,0.000008zm15.685979,-7.44652c-3.839228,-0.048778 -7.678448,-0.097549 -11.517676,-0.146327c0.400864,-2.588516 -0.759996,-6.675674 0.534153,-8.406974c13.57001,0 27.140053,0 40.710079,0c-0.399975,2.594197 0.759091,6.683793 -0.534144,8.421196c-9.732849,-0.061375 -19.459123,0.359799 -29.192404,0.132105l-0.000008,0zm20.489367,228.430955c-5.438381,-1.792739 -9.44842,-7.261923 -8.377316,-12.810538c-0.192448,-26.399993 0.254298,-52.816392 -0.517903,-79.203142c-6.251251,-6.70376 -4.421223,9.542686 -4.660716,13.254532c-0.337702,23.78406 0.547437,47.626118 -0.65639,71.373152c-0.85705,5.430812 -12.397186,8.283904 -1.967477,7.301531c5.391452,0.065431 10.789497,0.293053 16.179812,0.084474l-0.000008,-0.000008z" stroke-width="1.5" stroke="#000000" fill="url(#svg_57)"/>
  <path stroke="#56ffff" id="svg_55" d="m623.048338,571.687794c0,0.801868 -1.089471,1.451521 -2.434219,1.451521l-15.588082,0c-1.344741,0 -2.434216,-0.649651 -2.434216,-1.451521l0,-19.7479c0,-0.801806 1.089471,-1.451521 2.434216,-1.451521l15.588082,0c1.344748,0 2.434219,0.649715 2.434219,1.451521l0,19.7479zm-57.711387,0c0,0.801868 -1.089686,1.451521 -2.434219,1.451521l-15.588293,0c-1.344533,0 -2.434216,-0.649651 -2.434216,-1.451521l0,-19.7479c0,-0.801806 1.089682,-1.451521 2.434216,-1.451521l15.588293,0c1.344533,0 2.434219,0.649715 2.434219,1.451521l0,19.7479zm18.832515,-53.548465c-28.207421,0 -51.105308,13.530518 -51.456964,30.299257l8.930236,0c0.289573,-13.859548 19.215313,-25.042117 42.526728,-25.042117c23.311411,0 42.237162,11.18257 42.52335,25.042117l8.930028,0c-0.348073,-16.76874 -23.252697,-30.299257 -51.453381,-30.299257l0.000003,0zm-51.38457,45.659584l8.768192,0l0,-15.391196l-8.768192,0l0,15.391196zm93.835535,-15.393268l0,15.391262l9.092062,0l0,-15.391262l-9.092062,0z" stroke-opacity="null" stroke-width="1.5" fill="#000000"/>
  <path id="svg_56" d="m636.47067,681.782328c-5.871314,-0.168665 -16.439341,2.36271 -14.082922,-1.963948c4.085082,-2.655286 15.145521,-1.392826 13.888221,1.701489l0.143585,0.193555l0.051116,0.068905l0,0zm14.201321,-5.739485c-5.603845,3.599989 -18.228801,3.857431 -27.708381,5.198208c-4.390512,0.94451 -22.190403,1.558344 -15.412709,-1.325144c9.678948,-2.406313 21.583663,-2.987157 32.481073,-4.299292c3.508698,-0.309271 7.57868,-0.430687 10.640018,0.426228zm-28.983875,3.807281c-4.27481,-5.502781 -8.549604,-11.005552 -12.824406,-16.508333c5.229534,-2.668012 16.759466,-1.511009 15.162151,2.04539c3.323438,4.27811 6.646867,8.556236 9.970297,12.834359m-4.606047,2.895447c18.672115,24.54068 40.385587,48.792898 67.519372,72.212534m-62.589212,-72.850982c18.862779,23.094582 38.166845,46.213394 64.204117,68.340698c0.3584,1.714404 12.2488,6.854546 1.468962,5.528223c-3.352173,-0.602473 -9.077313,-0.192819 -9.698284,-1.960377c-25.436141,-23.056063 -47.489901,-46.635656 -66.125164,-70.588108" fill-opacity="null" stroke-opacity="null" stroke-width="1.5" stroke="#56ffff" fill="#000000"/>
  <path transform="rotate(49.41152572631836 162.53083801269563,624.8861083984374) " id="svg_58" d="m187.481304,492.758551c-2.912197,0.176878 -5.559569,1.810619 -7.722659,4.033721c0.009974,11.920015 -12.318151,22.169289 -16.483672,30.421886c2.554266,1.635786 1.252205,2.597071 -1.142509,3.921105c-0.188385,2.228123 0.518612,4.399136 2.734904,6.51251c-2.871206,37.076787 -6.675471,81.615672 -9.660817,119.051499c6.812893,0.122186 13.690036,0.988998 20.846454,0.608274c-0.007757,-28.824359 2.813583,-74.871638 3.636935,-102.713639c-0.111922,-9.039456 5.297088,-28.110022 20.398891,-32.389009c-7.696063,-13.089211 0.706847,-24.775188 -12.019101,-29.446329c-0.16179,-0.00108 -0.324687,-0.007836 -0.485368,0c-0.034342,0.001656 -0.068705,-0.00209 -0.103058,0l0,-0.000009l0,-0.000009zm12.956443,152.080709c-5.224908,5.903006 -13.067247,9.004571 -15.675833,12.045947c-5.957382,7.497603 -15.934032,-2.804087 -29.798047,2.652666c0.07203,-0.906647 0.169547,-1.923101 0.242673,-2.838601c-0.079775,-0.001771 -0.162886,0.000894 -0.242673,0c-7.379144,0.896916 -13.471731,-6.82913 -13.955991,-13.678634c6.152416,-10.527468 -15.782215,-15.942607 -21.608847,-5.161018c-4.36942,12.045938 -0.45434,24.35926 5.299165,36.011201c6.574631,14.30992 -9.830363,26.720645 -14.648804,39.999076c-4.584954,8.41312 -4.73278,18.124236 2.977799,25.846749c10.511873,12.027327 32.593899,16.49332 52.706749,16.608432c3.583756,0.198331 7.145337,0.366558 10.734622,0.517953c63.848038,2.907671 38.069237,-31.110475 28.016148,-60.573219c-6.451638,-19.180525 1.642261,-32.211043 6.946967,-37.730659c2.94656,-6.507737 6.681001,-20.36432 -10.993928,-13.69899l0,-0.000894l0,-0.000009zm-38.305283,-113.704005c2.698346,-10.55226 -8.980404,0.627752 0,0z" stroke-width="1.5" stroke="#000000" fill="url(#svg_72)"/>
  <path id="svg_59" d="m481.397525,445.680514l-31.219311,1.009279l-8.352507,24.590678l-27.618892,-5.945112l-40.053971,18.869264l-15.249704,-11.011968l-128.443627,47.09206l71.366174,-52.517669l-59.278962,-6.82756l18.549409,-10.158356l-40.698617,-18.64443l29.248328,-4.508894l-9.196743,-24.54181l30.661089,2.572107l25.225022,-22.647349l22.339193,8.836485l51.638014,-13.562511l6.92475,12.295339l61.656325,-0.171677l-10.688257,11.850512l52.099158,13.273668l-24.907793,7.643225l26.000922,22.504719z" stroke-opacity="null" stroke-width="1.5" stroke="#000000" fill="url(#svg_61)"/>
  <text stroke="#000000" transform="matrix(0.7909185978372658,0,0,1.7933397641660054,7.301748738604061,-359.69922056840437) " xml:space="preserve" text-anchor="start" font-family="Helvetica, Arial, sans-serif" font-size="24" id="svg_60" y="450.5" x="332.5" stroke-opacity="null" stroke-width="0" fill="url(#svg_67)">,!!!!</text>
  <path stroke="#000000" id="svg_62" d="m348.385735,683.790106c-3.481377,-0.26671 -9.747656,3.736164 -8.350425,-3.1056c2.422237,-4.198815 8.980489,-2.202482 8.234977,2.690571l0.085138,0.306069l0.030309,0.10896l0,0zm8.420629,-9.075871c-3.322782,5.692677 -10.80871,6.099772 -16.429598,8.219948c-2.603341,1.493558 -13.15773,2.464216 -9.138918,-2.095455c5.739102,-3.805112 12.797965,-4.723604 19.25955,-6.798489c2.080472,-0.489051 4.493755,-0.681047 6.308965,0.673996zm-17.185898,6.02047c-2.534735,-8.70157 -5.069461,-17.403126 -7.604191,-26.104696c3.100836,-4.218939 9.937473,-2.389365 8.99035,3.234384c1.970622,6.764994 3.941239,13.530012 5.911856,20.295026m-2.731141,4.578583c11.071572,38.806279 23.946507,77.156413 40.0354,114.18998m-37.112077,-115.199561c11.184626,36.519559 22.630911,73.077432 38.06963,108.06743c0.212512,2.710994 7.262888,10.839122 0.871016,8.741803c-1.98766,-0.952694 -5.382364,-0.304906 -5.750567,-3.099952c-15.08228,-36.458648 -28.158988,-73.745156 -39.208709,-111.62127" opacity="0.5" stroke-opacity="null" stroke-width="1.5" fill="url(#svg_61)"/>
  <line stroke-linecap="null" stroke-linejoin="null" id="svg_63" y2="701.5" x2="76.5" y1="575.5" x1="249.5" stroke-width="1.5" stroke="#000000" fill="none"/>
  <line stroke-linecap="null" stroke-linejoin="null" id="svg_64" y2="691.5" x2="76.5" y1="567.5" x1="244.5" stroke-width="1.5" stroke="#000000" fill="none"/>
  <line stroke-linecap="null" stroke-linejoin="null" id="svg_65" y2="691.5" x2="82.5" y1="572.5" x1="245.5" stroke-width="1.5" stroke="#000000" fill="none"/>
  <line stroke-linecap="null" stroke-linejoin="null" id="svg_66" y2="686.5" x2="74.5" y1="567.5" x1="236.5" stroke-width="1.5" stroke="#000000" fill="none"/>
  <text stroke="url(#svg_2)" transform="matrix(2.166867524042857,0,0,2.785900667956284,-884.926490321639,24.038289308272148) " xml:space="preserve" text-anchor="start" font-family="Helvetica, Arial, sans-serif" font-size="24" id="svg_69" y="8.5" x="823.5" fill-opacity="null" stroke-opacity="null" stroke-width="0" fill="url(#svg_31)"></text>
  <path id="svg_73" d="m114.005481,145.452817c-1.294016,7.124791 -4.599385,13.934027 -4.82196,21.281059c0.296149,4.25392 -2.638724,6.5389 -6.656481,6.458451c-4.321224,4.355627 0.533369,11.239223 5.422727,12.997459c4.989867,3.256955 11.180147,-0.382347 16.123062,2.539271c6.56337,4.989051 9.303427,13.834746 7.03907,21.589625c-2.251377,6.401672 9.273289,4.073441 4.938472,-1.04391c-3.347945,-5.001816 6.311119,-3.348118 3.83834,1.400644c-0.467257,3.811937 2.891598,5.045764 1.396796,8.738835c3.894209,2.171318 -0.326439,3.387071 -2.698377,3.797047c-5.554534,2.692491 1.004707,-4.82317 -3.395591,-7.046158c-4.029568,0.85158 -1.299122,7.413136 -2.682253,6.655284c-2.84741,-2.168121 -2.845309,-10.274112 -7.624228,-4.985049c-1.586076,-6.517058 1.307856,-13.304313 -0.921459,-19.783538c0.913218,-4.838771 -6.94343,-6.507795 -5.949705,-0.895633c0.396147,8.565346 -2.278644,17.113633 -0.743507,25.636777c2.114321,5.257004 8.027739,7.625221 11.739167,11.681903c3.048092,3.127932 6.999679,6.4722 11.743865,5.487416c5.380899,-0.22681 10.771719,-0.710045 16.128339,0.120682c6.737538,0.206637 11.880814,-4.971992 17.63062,-7.632132c6.759346,-5.219071 5.695106,-14.54142 5.021286,-21.967124c-0.826235,-4.584558 0.986836,-9.171202 0.648954,-13.712848c-4.873122,-5.797968 -8.871297,4.393121 -7.483119,8.771552c-0.00034,5.507733 1.087381,12.602635 -4.315688,16.190423c-4.458988,-0.109333 -8.702656,1.465597 -13.196037,0.64213c-3.646122,2.105454 -9.551944,2.051389 -10.755456,-2.96071c-0.480492,-4.451075 1.593596,-9.117576 -1.224514,-13.271667c2.476048,2.073683 6.795987,-1.79097 4.388446,2.858089c-2.936507,3.784325 2.48652,9.615724 4.528038,4.029998c0.677319,-3.747698 -2.92978,-8.721698 2.999528,-7.918778c1.209192,1.321924 -4.129288,10.568758 3.168075,8.231982c5.202624,-1.108158 -0.925588,-9.04403 6.119779,-9.071607c3.409703,-3.903388 2.491644,-11.219786 7.707266,-14.181014c5.815385,-3.826937 14.895167,-1.06404 19.045837,-7.544937c3.537869,-3.316512 1.872962,-12.508793 -4.228579,-9.462943c-7.624958,0.722797 -1.57349,-10.042298 -1.786239,-14.076097c1.796571,-3.513297 -2.181799,-10.908781 -0.811867,-11.693409c2.588525,3.851095 3.515632,8.355374 2.958937,12.856007c-0.047838,3.816685 -1.712387,14.160418 3.744356,7.783989c1.847254,-4.443811 1.309997,-9.477224 2.626071,-14.100495c2.538362,-9.981521 -2.006628,-19.96859 -7.073441,-28.422879c-4.315321,-4.551345 -9.793742,-8.179511 -14.938397,-11.751742c-8.653492,-3.164738 -18.208289,-3.731689 -27.347702,-2.938529c-8.084176,1.36258 -16.633164,2.799124 -23.073237,8.158911c-6.276403,3.596116 -12.287379,8.372311 -14.768699,15.282212c-2.162365,5.56662 -5.948943,11.235534 -4.227979,17.419246c1.645872,5.154814 0.772937,10.508273 1.039422,15.777019c2.805721,6.021655 5.454665,-3.081318 5.192095,-6.092279c0.155325,-5.709753 3.253245,-10.763714 5.535969,-15.832522l-0.000004,-0.000009zm51.533492,12.24952c5.769773,0.402032 13.075181,3.526354 13.232638,10.039946c0.877325,6.536561 -4.55427,12.872583 -11.515002,12.231572c-6.322576,-0.505007 -10.366225,-5.815632 -9.946389,-11.786284c-2.11678,-4.281022 1.177303,-8.866051 5.598265,-9.850186c0.857313,-0.280322 1.738535,-0.490147 2.630487,-0.635053l0,0.000004zm-38.936259,0.556746c6.693364,-1.157515 14.308706,2.880117 14.331055,10.084574c0.628643,6.964803 -6.975735,8.329347 -12.163109,10.074134c-3.589425,2.25367 -7.317989,0.155337 -10.30052,-2.11531c-3.869687,-3.938578 -2.732295,-11.875404 1.353701,-15.470653c1.981376,-1.425909 4.434157,-1.98644 6.778873,-2.572745zm22.9037,18.373752c3.240337,4.330733 7.130385,10.934812 2.939929,15.850034c-3.719978,2.901026 -4.188969,-4.1264 -8.093443,-0.816773c-3.662851,-3.119365 -0.284566,-9.466963 2.285502,-12.635856c0.847079,-0.912522 1.816426,-1.715891 2.868012,-2.397405z" stroke-width="1.5" stroke="#ffff00" fill="#ffffff"/>
  <path stroke="#6d6d17" transform="rotate(31.369403839111328 197.01354980468759,223.8182678222656) " id="svg_74" d="m153.096169,242.457499c0,-1.487188 0,-2.97438 0,-4.461567c25.095648,0 50.191296,0 75.286944,0c0,2.97438 0,5.948757 0,8.923133c-25.095648,0 -50.191296,0 -75.286944,0c0,-1.487188 0,-2.974378 0,-4.461567l0,0.000002zm77.477826,-0.074357c0,-1.51198 0,-3.023956 0,-4.535927c1.327826,0 2.65563,0 3.983438,0c0,3.023949 0,6.047901 0,9.071852c-1.327808,0 -2.655613,0 -3.983438,0c0,-1.51198 0,-3.023951 0,-4.535925zm6.373496,0c0,-1.51198 0,-3.023956 0,-4.535927c1.327817,0 2.65563,0 3.983438,0c0,3.023949 0,6.047901 0,9.071852c-1.327808,0 -2.655622,0 -3.983438,0c0,-1.51198 0,-3.023951 0,-4.535925zm-6.373496,-8.449989c0.686768,-2.739163 -1.369348,-6.019693 -5.568603,-5.922783c-4.86563,-0.200986 -9.806457,-0.036239 -14.642478,-0.270415c-4.691548,-1.198285 -7.261625,-5.033093 -6.598498,-8.601555c-0.767364,-1.03027 -4.052948,-0.735611 -5.403674,-1.864801c-6.583855,-2.812143 -7.468775,-10.352981 -1.955445,-14.161928c1.931316,-1.484653 5.629643,-2.702614 8.077198,-2.324707c0,0.940375 0,1.880753 0,2.821125c-5.058999,0.042167 -8.902116,4.118763 -7.420071,7.690627c1.158606,3.584121 6.320256,4.659546 10.629462,4.70972c2.753534,1.659498 -1.690226,4.520847 0.70279,6.690659c1.620024,2.945809 6.42243,1.984787 9.770666,2.217847c4.810274,0.216264 10.673852,-0.634021 14.164634,2.516764c2.993135,2.439516 2.073924,5.901375 2.227457,8.926319c-1.327808,0 -2.655613,0 -3.983438,0c0,-0.808956 0,-1.617916 0,-2.426874l0,0.000002zm6.319455,-1.105204c0.313626,-3.815931 -1.161096,-8.012338 -5.548166,-10.310482c-4.194328,-2.380955 -9.63114,-1.649305 -14.544778,-1.772933c-3.076873,-2.038194 1.97417,-4.341256 1.431299,-6.795376c0.342792,-3.215265 -2.611241,-6.351069 -6.874889,-7.041685c-2.435788,0.107507 -3.374458,-0.376811 -2.890982,-2.099534c-0.756684,-2.346067 3.830592,-0.678117 5.348964,-0.472435c5.54305,1.485016 9.219717,5.952806 8.339904,10.328449c-0.143083,1.5414 -2.145874,3.738913 1.405775,3.129978c6.904524,-0.271893 13.505983,3.077543 15.947365,7.880565c1.796298,3.396337 1.340919,7.109291 1.422991,10.685523c-1.311296,0 -2.622589,0 -3.933885,0c-0.034526,-1.17735 -0.06907,-2.354744 -0.103594,-3.532069l-0.000003,0z" stroke-width="1.5" fill="url(#svg_78)"/>
  <path id="svg_79" d="m600.487523,385.317746l51.333342,0l0,0l77.000009,0l179.666694,0l0,57.544829l0,0l0,24.662064l0,16.441378l-179.666694,0l-127.834825,48.351711l50.834817,-48.351711l-51.333342,0l0,-16.441378l0,-24.662064l0,0l0,-57.544829z" stroke-width="1.5" stroke="#6d6d17" fill="url(#svg_82)"/>
  <text stroke="#6d6d17" transform="matrix(0.9502255320549011,0,0,1.4938310300475308,30.63618502020836,-210.46995748578317) " xml:space="preserve" text-anchor="start" font-family="Helvetica, Arial, sans-serif" font-size="24" id="svg_80" y="420.5" x="618.5" stroke-width="0" fill="#000000"> :</text>
  <text stroke="#6d6d17" transform="matrix(0.8175511893618932,0,0,1,113.25300459051437,0) " xml:space="preserve" text-anchor="start" font-family="Helvetica, Arial, sans-serif" font-size="24" id="svg_81" y="451.5" x="620.5" stroke-opacity="null" stroke-width="0" fill="#000000">   </text>
 </g>
</svg>